<mxfile host="app.diagrams.net" modified="2023-12-04T14:27:01.678Z" agent="Mozilla/5.0 (Windows NT 10.0; Win64; x64; rv:120.0) Gecko/20100101 Firefox/120.0" etag="Ji1oKbjeBBeLVtHVdmzf" version="22.1.5" type="device">
  <diagram name="Page-1" id="ctSJrlpGIVC_2yMm2orc">
    <mxGraphModel dx="4325" dy="2495" grid="1" gridSize="10" guides="1" tooltips="1" connect="1" arrows="1" fold="1" page="1" pageScale="1" pageWidth="850" pageHeight="1100" math="0" shadow="0">
      <root>
        <mxCell id="0" />
        <mxCell id="1" parent="0" />
        <mxCell id="NfaXuaNdWtu9nhoCSl9H-8" value="" style="rounded=0;whiteSpace=wrap;html=1;" vertex="1" parent="1">
          <mxGeometry x="-1340" y="-110" width="2180" height="970" as="geometry" />
        </mxCell>
        <mxCell id="yHpqSOsJD35er9uTnDVC-35" value="" style="rounded=0;whiteSpace=wrap;html=1;" parent="1" vertex="1">
          <mxGeometry x="-1310" y="360" width="291.3" height="200" as="geometry" />
        </mxCell>
        <mxCell id="s_mm2p-20OtG_nOUa05g-23" style="edgeStyle=orthogonalEdgeStyle;rounded=0;orthogonalLoop=1;jettySize=auto;html=1;exitX=0.5;exitY=0;exitDx=0;exitDy=0;entryX=0.75;entryY=1;entryDx=0;entryDy=0;" parent="1" source="yHpqSOsJD35er9uTnDVC-32" target="NfaXuaNdWtu9nhoCSl9H-7" edge="1">
          <mxGeometry relative="1" as="geometry">
            <mxPoint x="-600" y="210" as="targetPoint" />
            <Array as="points">
              <mxPoint x="110" y="200" />
              <mxPoint x="-270" y="200" />
              <mxPoint x="-270" y="250" />
              <mxPoint x="-600" y="250" />
            </Array>
          </mxGeometry>
        </mxCell>
        <mxCell id="yHpqSOsJD35er9uTnDVC-32" value="" style="rounded=0;whiteSpace=wrap;html=1;" parent="1" vertex="1">
          <mxGeometry x="30" y="220" width="160" height="270" as="geometry" />
        </mxCell>
        <mxCell id="yHpqSOsJD35er9uTnDVC-13" value="" style="rounded=0;whiteSpace=wrap;html=1;" parent="1" vertex="1">
          <mxGeometry x="-202.5" y="-60" width="140" height="190" as="geometry" />
        </mxCell>
        <mxCell id="yHpqSOsJD35er9uTnDVC-10" value="LOGIN" style="rounded=0;whiteSpace=wrap;html=1;" parent="1" vertex="1">
          <mxGeometry x="-192.5" y="-15" width="120" height="60" as="geometry" />
        </mxCell>
        <mxCell id="yHpqSOsJD35er9uTnDVC-11" value="SIGN UP" style="rounded=0;whiteSpace=wrap;html=1;" parent="1" vertex="1">
          <mxGeometry x="-192.5" y="55" width="120" height="60" as="geometry" />
        </mxCell>
        <mxCell id="yHpqSOsJD35er9uTnDVC-15" value="DUAS" style="rounded=0;whiteSpace=wrap;html=1;" parent="1" vertex="1">
          <mxGeometry x="50" y="270" width="120" height="60" as="geometry" />
        </mxCell>
        <mxCell id="yHpqSOsJD35er9uTnDVC-16" value="TRANSLATION TO CYPHER" style="rounded=0;whiteSpace=wrap;html=1;" parent="1" vertex="1">
          <mxGeometry x="-1158.7" y="410" width="120" height="60" as="geometry" />
        </mxCell>
        <mxCell id="yHpqSOsJD35er9uTnDVC-17" value="RANKING" style="rounded=0;whiteSpace=wrap;html=1;" parent="1" vertex="1">
          <mxGeometry x="-1158.7" y="480" width="120" height="60" as="geometry" />
        </mxCell>
        <mxCell id="s_mm2p-20OtG_nOUa05g-19" style="edgeStyle=orthogonalEdgeStyle;rounded=0;orthogonalLoop=1;jettySize=auto;html=1;exitX=1;exitY=0.5;exitDx=0;exitDy=0;entryX=0.5;entryY=0;entryDx=0;entryDy=0;endArrow=block;endFill=1;" parent="1" source="yHpqSOsJD35er9uTnDVC-19" target="yHpqSOsJD35er9uTnDVC-39" edge="1">
          <mxGeometry relative="1" as="geometry">
            <Array as="points">
              <mxPoint x="256" y="370" />
              <mxPoint x="256" y="330" />
              <mxPoint x="573" y="330" />
            </Array>
          </mxGeometry>
        </mxCell>
        <mxCell id="yHpqSOsJD35er9uTnDVC-19" value="QIBLA DIRCETION" style="rounded=0;whiteSpace=wrap;html=1;" parent="1" vertex="1">
          <mxGeometry x="50" y="340" width="120" height="60" as="geometry" />
        </mxCell>
        <mxCell id="yHpqSOsJD35er9uTnDVC-20" value="MASJID FINDER" style="rounded=0;whiteSpace=wrap;html=1;" parent="1" vertex="1">
          <mxGeometry x="50" y="410" width="120" height="60" as="geometry" />
        </mxCell>
        <mxCell id="yHpqSOsJD35er9uTnDVC-21" value="SEARCH RESULTS" style="rounded=0;whiteSpace=wrap;html=1;" parent="1" vertex="1">
          <mxGeometry x="-970" y="10" width="120" height="60" as="geometry" />
        </mxCell>
        <mxCell id="s_mm2p-20OtG_nOUa05g-11" style="edgeStyle=orthogonalEdgeStyle;rounded=0;orthogonalLoop=1;jettySize=auto;html=1;exitX=0.5;exitY=1;exitDx=0;exitDy=0;entryX=0.5;entryY=0;entryDx=0;entryDy=0;startArrow=block;startFill=1;endArrow=block;endFill=1;" parent="1" source="yHpqSOsJD35er9uTnDVC-23" edge="1">
          <mxGeometry relative="1" as="geometry">
            <mxPoint x="-1153.6999999999998" y="640" as="targetPoint" />
          </mxGeometry>
        </mxCell>
        <mxCell id="yHpqSOsJD35er9uTnDVC-23" value="GET RESULTS" style="rounded=0;whiteSpace=wrap;html=1;" parent="1" vertex="1">
          <mxGeometry x="-1288.7" y="480" width="120" height="60" as="geometry" />
        </mxCell>
        <mxCell id="yHpqSOsJD35er9uTnDVC-33" value="USER MODULES" style="text;html=1;strokeColor=none;fillColor=none;align=center;verticalAlign=middle;whiteSpace=wrap;rounded=0;" parent="1" vertex="1">
          <mxGeometry x="50" y="230" width="120" height="30" as="geometry" />
        </mxCell>
        <mxCell id="yHpqSOsJD35er9uTnDVC-34" value="AUTHENTICATION" style="text;html=1;strokeColor=none;fillColor=none;align=center;verticalAlign=middle;whiteSpace=wrap;rounded=0;" parent="1" vertex="1">
          <mxGeometry x="-192.5" y="-50" width="120" height="30" as="geometry" />
        </mxCell>
        <mxCell id="yHpqSOsJD35er9uTnDVC-36" value="RESULT(S) FINDER" style="text;html=1;strokeColor=none;fillColor=none;align=center;verticalAlign=middle;whiteSpace=wrap;rounded=0;" parent="1" vertex="1">
          <mxGeometry x="-1288.7" y="370" width="250" height="30" as="geometry" />
        </mxCell>
        <mxCell id="yHpqSOsJD35er9uTnDVC-37" value="KEYWORD EXTRACTION" style="rounded=0;whiteSpace=wrap;html=1;" parent="1" vertex="1">
          <mxGeometry x="-1288.7" y="410" width="120" height="60" as="geometry" />
        </mxCell>
        <mxCell id="s_mm2p-20OtG_nOUa05g-22" style="edgeStyle=orthogonalEdgeStyle;rounded=0;orthogonalLoop=1;jettySize=auto;html=1;exitX=1;exitY=0.75;exitDx=0;exitDy=0;entryX=0.5;entryY=1;entryDx=0;entryDy=0;endArrow=block;endFill=1;startArrow=block;startFill=1;" parent="1" source="NfaXuaNdWtu9nhoCSl9H-7" target="yHpqSOsJD35er9uTnDVC-13" edge="1">
          <mxGeometry relative="1" as="geometry">
            <mxPoint x="-570" y="185" as="sourcePoint" />
          </mxGeometry>
        </mxCell>
        <mxCell id="s_mm2p-20OtG_nOUa05g-24" style="edgeStyle=orthogonalEdgeStyle;rounded=0;orthogonalLoop=1;jettySize=auto;html=1;exitX=0;exitY=0.5;exitDx=0;exitDy=0;entryX=0.5;entryY=0;entryDx=0;entryDy=0;endArrow=block;endFill=1;startArrow=block;startFill=1;" parent="1" source="yHpqSOsJD35er9uTnDVC-21" target="yHpqSOsJD35er9uTnDVC-35" edge="1">
          <mxGeometry relative="1" as="geometry" />
        </mxCell>
        <mxCell id="s_mm2p-20OtG_nOUa05g-25" style="edgeStyle=orthogonalEdgeStyle;rounded=0;orthogonalLoop=1;jettySize=auto;html=1;exitX=0;exitY=0.75;exitDx=0;exitDy=0;entryX=1;entryY=0.5;entryDx=0;entryDy=0;endArrow=block;endFill=1;startArrow=block;startFill=1;" parent="1" source="NfaXuaNdWtu9nhoCSl9H-7" target="yHpqSOsJD35er9uTnDVC-21" edge="1">
          <mxGeometry relative="1" as="geometry">
            <mxPoint x="-690" y="185" as="sourcePoint" />
          </mxGeometry>
        </mxCell>
        <mxCell id="yHpqSOsJD35er9uTnDVC-39" value="" style="rounded=0;whiteSpace=wrap;html=1;" parent="1" vertex="1">
          <mxGeometry x="342.5" y="380" width="460" height="200" as="geometry" />
        </mxCell>
        <mxCell id="yHpqSOsJD35er9uTnDVC-40" value="GPS" style="rounded=0;whiteSpace=wrap;html=1;" parent="1" vertex="1">
          <mxGeometry x="363.79999999999995" y="490" width="120" height="60" as="geometry" />
        </mxCell>
        <mxCell id="yHpqSOsJD35er9uTnDVC-43" value="HARDWARE COMPONENTS" style="text;html=1;strokeColor=none;fillColor=none;align=center;verticalAlign=middle;whiteSpace=wrap;rounded=0;" parent="1" vertex="1">
          <mxGeometry x="363.8" y="390" width="418.7" height="30" as="geometry" />
        </mxCell>
        <mxCell id="yHpqSOsJD35er9uTnDVC-45" value="" style="rounded=0;whiteSpace=wrap;html=1;" parent="1" vertex="1">
          <mxGeometry x="502.5" y="443.1" width="280" height="120" as="geometry" />
        </mxCell>
        <mxCell id="yHpqSOsJD35er9uTnDVC-42" value="GYROSCOPE" style="rounded=0;whiteSpace=wrap;html=1;" parent="1" vertex="1">
          <mxGeometry x="513.8" y="490" width="120" height="60" as="geometry" />
        </mxCell>
        <mxCell id="yHpqSOsJD35er9uTnDVC-44" value="COMPASS" style="rounded=0;whiteSpace=wrap;html=1;" parent="1" vertex="1">
          <mxGeometry x="652.5" y="490" width="120" height="60" as="geometry" />
        </mxCell>
        <mxCell id="yHpqSOsJD35er9uTnDVC-46" value="GYRO-COPMPASS" style="text;html=1;strokeColor=none;fillColor=none;align=center;verticalAlign=middle;whiteSpace=wrap;rounded=0;" parent="1" vertex="1">
          <mxGeometry x="512.5" y="448.1" width="260" height="30" as="geometry" />
        </mxCell>
        <mxCell id="s_mm2p-20OtG_nOUa05g-6" style="edgeStyle=orthogonalEdgeStyle;rounded=0;orthogonalLoop=1;jettySize=auto;html=1;exitX=0.5;exitY=0;exitDx=0;exitDy=0;entryX=0.25;entryY=1;entryDx=0;entryDy=0;endArrow=block;endFill=1;startArrow=block;startFill=1;" parent="1" source="s_mm2p-20OtG_nOUa05g-1" target="NfaXuaNdWtu9nhoCSl9H-7" edge="1">
          <mxGeometry relative="1" as="geometry">
            <mxPoint x="-630" y="210" as="targetPoint" />
          </mxGeometry>
        </mxCell>
        <mxCell id="s_mm2p-20OtG_nOUa05g-1" value="" style="rounded=0;whiteSpace=wrap;html=1;" parent="1" vertex="1">
          <mxGeometry x="-830" y="310" width="160" height="270" as="geometry" />
        </mxCell>
        <mxCell id="s_mm2p-20OtG_nOUa05g-13" style="edgeStyle=orthogonalEdgeStyle;rounded=0;orthogonalLoop=1;jettySize=auto;html=1;exitX=0;exitY=0.5;exitDx=0;exitDy=0;entryX=0.5;entryY=1;entryDx=0;entryDy=0;" parent="1" source="s_mm2p-20OtG_nOUa05g-3" target="NfaXuaNdWtu9nhoCSl9H-2" edge="1">
          <mxGeometry relative="1" as="geometry">
            <Array as="points">
              <mxPoint x="-910" y="460" />
              <mxPoint x="-910" y="790" />
              <mxPoint x="-1150" y="790" />
            </Array>
            <mxPoint x="-1220" y="820" as="targetPoint" />
          </mxGeometry>
        </mxCell>
        <mxCell id="s_mm2p-20OtG_nOUa05g-3" value="UPDATE GRAPH" style="rounded=0;whiteSpace=wrap;html=1;" parent="1" vertex="1">
          <mxGeometry x="-810" y="430" width="120" height="60" as="geometry" />
        </mxCell>
        <mxCell id="s_mm2p-20OtG_nOUa05g-4" value="REVIEW REPORTS" style="rounded=0;whiteSpace=wrap;html=1;" parent="1" vertex="1">
          <mxGeometry x="-810" y="500" width="120" height="60" as="geometry" />
        </mxCell>
        <mxCell id="s_mm2p-20OtG_nOUa05g-5" value="ADMIN MODULES" style="text;html=1;strokeColor=none;fillColor=none;align=center;verticalAlign=middle;whiteSpace=wrap;rounded=0;" parent="1" vertex="1">
          <mxGeometry x="-810" y="320" width="120" height="30" as="geometry" />
        </mxCell>
        <mxCell id="yHpqSOsJD35er9uTnDVC-47" value="UPDATE DATABASE" style="rounded=0;whiteSpace=wrap;html=1;" parent="1" vertex="1">
          <mxGeometry x="-810" y="360" width="120" height="60" as="geometry" />
        </mxCell>
        <mxCell id="s_mm2p-20OtG_nOUa05g-12" value="" style="group" parent="1" vertex="1" connectable="0">
          <mxGeometry x="-200" y="500" width="75" height="100" as="geometry" />
        </mxCell>
        <mxCell id="yHpqSOsJD35er9uTnDVC-22" value="" style="shape=cylinder3;whiteSpace=wrap;html=1;boundedLbl=1;backgroundOutline=1;size=15;" parent="s_mm2p-20OtG_nOUa05g-12" vertex="1">
          <mxGeometry width="75" height="100" as="geometry" />
        </mxCell>
        <mxCell id="yHpqSOsJD35er9uTnDVC-29" value="" style="dashed=0;outlineConnect=0;html=1;align=center;labelPosition=center;verticalLabelPosition=bottom;verticalAlign=top;shape=mxgraph.weblogos.mongodb" parent="s_mm2p-20OtG_nOUa05g-12" vertex="1">
          <mxGeometry x="27.5" y="40" width="21.2" height="53.8" as="geometry" />
        </mxCell>
        <mxCell id="s_mm2p-20OtG_nOUa05g-14" style="edgeStyle=orthogonalEdgeStyle;rounded=0;orthogonalLoop=1;jettySize=auto;html=1;exitX=1;exitY=0.5;exitDx=0;exitDy=0;entryX=0;entryY=0.5;entryDx=0;entryDy=0;entryPerimeter=0;endArrow=block;endFill=1;" parent="1" source="yHpqSOsJD35er9uTnDVC-47" target="yHpqSOsJD35er9uTnDVC-22" edge="1">
          <mxGeometry relative="1" as="geometry" />
        </mxCell>
        <mxCell id="s_mm2p-20OtG_nOUa05g-15" style="edgeStyle=orthogonalEdgeStyle;rounded=0;orthogonalLoop=1;jettySize=auto;html=1;exitX=1;exitY=0.5;exitDx=0;exitDy=0;entryX=0.5;entryY=1;entryDx=0;entryDy=0;entryPerimeter=0;endArrow=block;endFill=1;" parent="1" source="s_mm2p-20OtG_nOUa05g-4" target="yHpqSOsJD35er9uTnDVC-22" edge="1">
          <mxGeometry relative="1" as="geometry">
            <Array as="points">
              <mxPoint x="-520" y="530" />
              <mxPoint x="-520" y="620" />
              <mxPoint x="-162" y="620" />
            </Array>
          </mxGeometry>
        </mxCell>
        <mxCell id="s_mm2p-20OtG_nOUa05g-16" style="edgeStyle=orthogonalEdgeStyle;rounded=0;orthogonalLoop=1;jettySize=auto;html=1;exitX=0;exitY=0.5;exitDx=0;exitDy=0;entryX=1;entryY=0.5;entryDx=0;entryDy=0;entryPerimeter=0;endArrow=none;endFill=0;startArrow=block;startFill=1;" parent="1" source="yHpqSOsJD35er9uTnDVC-15" target="yHpqSOsJD35er9uTnDVC-22" edge="1">
          <mxGeometry relative="1" as="geometry" />
        </mxCell>
        <mxCell id="s_mm2p-20OtG_nOUa05g-18" style="edgeStyle=orthogonalEdgeStyle;rounded=0;orthogonalLoop=1;jettySize=auto;html=1;exitX=1;exitY=0.5;exitDx=0;exitDy=0;entryX=0;entryY=0.5;entryDx=0;entryDy=0;endArrow=block;endFill=1;" parent="1" source="yHpqSOsJD35er9uTnDVC-20" target="yHpqSOsJD35er9uTnDVC-40" edge="1">
          <mxGeometry relative="1" as="geometry" />
        </mxCell>
        <mxCell id="s_mm2p-20OtG_nOUa05g-20" value="" style="group" parent="1" vertex="1" connectable="0">
          <mxGeometry x="-440" y="-15" width="88.34" height="110" as="geometry" />
        </mxCell>
        <mxCell id="yHpqSOsJD35er9uTnDVC-12" value="" style="shape=cylinder3;whiteSpace=wrap;html=1;boundedLbl=1;backgroundOutline=1;size=15;" parent="s_mm2p-20OtG_nOUa05g-20" vertex="1">
          <mxGeometry width="75" height="100" as="geometry" />
        </mxCell>
        <mxCell id="NfaXuaNdWtu9nhoCSl9H-4" value="" style="shape=image;verticalLabelPosition=bottom;labelBackgroundColor=default;verticalAlign=top;aspect=fixed;imageAspect=0;image=data:image/png,iVBORw0KGgoAAAANSUhEUgAAAyAAAAJYCAYAAACadoJwAAAAGXRFWHRTb2Z0d2FyZQBBZG9iZSBJbWFnZVJlYWR5ccllPAAAQppJREFUeNrs3X+QbNlB2PfT8+b92N2n3dGyIIhwXmOwtCDhNyZQBWhXr1c/oXAVSlmAiKn4KQIbEly7QChIGWelQsaKo2TlGGORIki4ypXEcSwcQG934xil4j9TBVW2FGwJ9AutJHa12t03P3u670mf2317bv+YeT0z3T19uz+f0syb1zPT03Nn3tX57ulzbggAAAAAAAAAAAAAAAAAAAAAAAAAAAAAAAAAAAAAAAAAAAAAAAAAAAAAAAAAAAAAAAAAAAAAAAAAAAAAAAAAAAAAAAAAAAAAAAAAAAAAAAAAAAAAAAAAAAAAAAAAAAAAAAAAAAAAAAAAAAAAAAAAAAAAAAAAAAAAAAAAAAAAAAAAAAAAAAAAAAAAAAAAAAAAAAAAAAAAAAAAAAAAAAAAAAAAAAAAAAAAAAAAAAAAAAAAAAAAAAAAAAAAAAAAAAAAAAAAAAAAAAAAAAAAAAAAAAAAAAAAAAAAAAAAAAAAAAAAAAAAAAAAAAAAAAAAAAAAAAAAAAAAAAAAAAAAAAAAAAAAAAAAAAAAAAAAAAAAAAAAAAAAAAAAAAAAAAAAAAAAAAAAAAAAAAAAAAAAAAAAAAAAAAAAAAAAAAAAAAAAAAAAAAAAAAAAAAAAAAAAAAAAAAAAAAAAAAAAAAAAAAAAAAAAADAPNYcAWDXx//y+Ru/NF2pvfvIPHREAECAA046Om50/Hu28bB7eGIu3Ptx5+a3aW576mCMFAAIE4CzhUe/88ZGB8BiMj7IPdCLkZxw1ABAgAKeJjxQdv9952QixHULzq52XF0NoN0PIOi8X7uq8XAnh8v0hrN9TfNqHOxHyTkcPAAQIwEkD5A9CmvnYfy6E3S+HPELGz3x0AuRqCFevdc6KF9Lf/uNOhPy2IwgAAgRg0vi42fnjQ2H7892Zj/zGeIczYic+Xvbn08zIC50P/qbaW55+wZEEgOlacwiAJfV42Pvy5PGRf0w75MESWxudvz3mEALA9JkBAZZOvvA8a346vPhHk8fH4WeHcNcrQrjyijT7YRYEAKbMDAiwjOph77nTxUeSPje2zYIAgAABmEgjtLZOFx/5m+3uovUQHo9Pv6XucAKAAAE4zrXQ2j1dfBTSzllpq960lgQAECAARzrYqp8pPgrdWZCbZkEAQIAAHC1rbZ45PpK0g1Y7n0n5kIMKAAIEYDQpnn7rRsj2Ns4cH4WdL6bXjfj0WxqOLgAIEIBhm3de/3GCxelpMXt6CdFaEAAQIAAj6iFm04mPQnctSCM+/eaGwwsAAgRgMEDyGYspxUf6nHR/3SuqWwsCAAIEoKS9d2Oq8VHozoLU49NvvukgA4AAAejKDupTj4/8fpvFLIi1IAAgQACKUNivTz0+CmkWJLbTLMi7HWgAECDAiotPv3UztJuziY88bprdK6SH8GgnQjYccQAQIMBqq4f23mzio7D3XJoFSfHxmMMNAAIEWG2b3SuXzyg+8g9rmwUBAAECkLsWYmt28VFIa0GyZoqPJxxyABAgwKpqvlCfeXzknxKLbXlvxqffXHfgAUCAACspa8wlPpL957uL0m3LCwACBFg98em31HtBMPv4KOw8k16nWZCGnwAACBBgtdRDa3d+8ZE0XwyhtZXeMgsCAAIEWDGbITuYX3wUumtBGmZBAECAAKvlWncL3jnGR3KwZRYEAAQIsHJa25tzj4/C1ufT6zQLctMPAgAECLAKYlY/l/hI0uL3tCuWWRAAECDAimjv1M8lPgppLUiM9fjUm276YQCAAAGWWHz6LY3Qbp5ffCTZfgj7z6a3nuhEyIafCgAIEGB51Ud3wJpjfBRfK58Faaf4eMyPBAAECLDMATKwA9Y5xEf+ZjuE/efSW4+aBQEAAQIsq6x1PR/8n2d8FPaeLWZBLEgHAAECLKX+AvRzjo/85k4I7TyT3nosPvWmuh8OAAgQYNlkzc2FiI9C8/nu1rxmQQBAgADLJT79lnqIrcWJj0JakB7CTbMgACBAgOVKkHo42F6s+EjSLEhrK731IT8jABAgwPJo9J7utDjxUejOgjTiU29s+DEBgAABlsO1iQNknvGRpBmQ1u30lrUgACBAgKXQ2q4vZHwUX/NwFuRtflgAIECAqstamwsbH8nBVgj7z6e3nvDDAgABAlRYfPrNGyHb21jY+Ch0Z0Hq8ak33vRTA0CAAFTXZmjtLnZ8JGmNSncWxFoQAASIQwBUWD3EbLHjo5Cujh7baRbk3X5sAAgQgKoGSPdaG4sdH/n72yHsPZfeerQTIRt+dAAIEICqae/dqER8FPaeTSGS4uMxPzwABAhA1WTNjcrER/6x7W6EhPhofOoNdT9AAAQIQLUCZLMy8VHY/VIRThakA7CSag4BUEXx6Tdvhp1n/iDsP1ed+Ci+3uX7Q7jnz6W3vqn21n/1mcod+ycb9ZDW33R9pvZ9H/uM30gAJrXuEAAVVQ/tverFR5K25L3rFSGsXUqzIO+sSHQUa1f+Wik+ivelAPmtzssHOjHygl9NAI7jKVhAVW2G1k714qOw/fn0+mZ86g2NCsTH2zp/fDp0nzZWHxuD3fd9uvexACBAgKVzLV/UXcX4SA62Qm8L4YVeC9IJipudPz7SednoL6K//anBl+7uXqH7MfEj8daNm349ATiKNSBAJcXf/a7fD1ufbVQyPgoXr4bwsm9Obz1Se+u/+tgCxke988cf5GGRFs8fhsaY/ze5EMKVBzovX5/+lp6G9Zdq3/9/f8ZvKgDDzIAAFS2QrNrxkRzOgjyxoEf5iTw+tj/X3b3ruBmn2Op+TPrY9DkhfMgvKQACBFiO9nj6zRshO6h2fBS28rUgm/GpN9xcqGP8ZCMF3tvCzhe6i+Yn/X6bzxcR0oi3bjT8tgIgQIBlsBnau9WPjyRrFgP8RVsL8ng+O5NfOPGE32+KkAqsbwFAgACcIECa1Y+Pwu6X0+t6fPKRxxbh4PZmPxr5U6pO+/12P9csCAACBFgK1+48A1KR+EjSLEh3wP54J0I2FuD4dmc/DrZO//22tsyCACBAgCXR2tpcmvgoPr+7w1Rxsb9z07uORyNsfe7s3+/hWhDXBgFAgAAVFmN9qeIj/6Mdwv5z6a1Hz3kW5Il8TUrWPPv3m+6j+Xz3PgFAgACV1dqpL1V8FNIsSNZM8XEuT1vqXXSwfvTaj1N8v937qsdbr7/pFxcAAQJUTnz6zY3x/3W+4vGR39QuFqQ/Fp98pH4Oh/fxo2c/Tvn95rt8fSUEa0EAECBARW2MDpCXID4KzX4AzHXAfvzsxxmPb/cihmZBABAgQCVthtbucsZHoTsLcjM++cjmnOKj+7SvFAqziLt0n93riTzRiZANv8IAAgSgOrLW9fypSssaH8nhhfzmtXj7sTRDMXrRwSke3wXZ5QsAAQJwMv0F6EsaH4XuLEgjPvlIY5aHszf78WgvEGYTH/lt7WIW5FGzIAACBKA6sv3NpY+P5OD2vC7k91g+MzEw+zGj42sWBAABAlRJfOpN9cH/Sr+k8VE8zu0vpNdpFmQmF/IbP/sxw7gzCwKAAAEqph4OtlYjPpL2bsi3xZ3dWpDH8+uO9He+msPMUneh+7ld6wQAAQJwEo2jr9C9ZPFRHrCnC/k9+cjNaR7I+GSjHtJToeYZH4Pf02Px1uvrfqUBBAjAIrvvxAFS5fhI8gv55bMgj3ciZJpPW3r88L7nvKZm/3yudQKAAAE4mdbWya6LUfX4KOx8Ib+QX5jS4u3e7MfN7kzEvBf093RnQW6aBQFYPesOAVAZWWvyAFmW+Mg/prd4+66vfzQ++cgHat/3+y+c8YE+nl/Mcf8r5xMfSZoFufK1IVy4kmZB3umXe8wh/sSPphmvtAFBOdL+sPPysdq3/c8vOEJAVdUcAqASg7Gn3rQR9r781cM1CysSH/2z9YUQNr4t/fmeToC8+9SP8slGirg/CC99stjmd/7xUbh4Twgv+5b01iO17/9/Pua3fCA80sYDN48M0tqFD3fe+hkhAlSRp2ABVbGZ/1f7VYyPYtDZja9He0+hOq0nStcYOb/4SMcs7Wg2n2udVCk+UiB+eiA+4kEI2c7hVskpRrvv/3Tv4wEECMAM3PkaIMsaH4X0NKxs/9Rb2MZbNxqdr92YaBZp1vFR6D6WRrz1cEN85DHx+52XjTw6ms90js+/77x8qvOz/+zh280vd6MkfVzn40UIIEAAZhUgx/1X+2WPj+LrFYu3TzcL8nh+DE8z+zGL+EjMgozGx8Fz3dBovRhGojuFR+v5TpB8uvv+boQ84fQACBCAaWvv3Vj5+EgOt7A90aAzn/1I11E5zezHrOKjUFzxfUVnQQbiI816HDw7wSe1uzMkKVbSsfvEj77NSQIQIADT1L169mrHR2Hrc+mmt8VbjZMM2J8IzedPPvsx6/jI43LmV3yvTnx0ZzUml2KlfTu99YNOEoAAAZhqgOxvio/eX0/4tKV468bNkBbxn3T2Yx7xUeg+ts146+Gb4uOE0pqQNLsFIEAApjRQe+pNm6F9sLrxEQe/dP7XzoC982cjm2wW5PF89uMkV5GfZ3zkgXl4xXfxcdI76/zbaL9Ud6YABAjA9NTzp+msanwkte7d9e+xudV5yQetHzr2XrqzH/UTzX7MOz4K3cdYX/ZZkKnGR3Gcs/3O/b6j4VQBCBCA6djsB8gqxsfw3RVvp8XbMdSzjzaOG7A/HvafnXz247ziI0mPce/Z7mMWHyc7ztl2N9QBBAjAVFzLd/1ZxTUfxS1xtE1iZ8Ae959Pb48dsGe3bry7c9zqYedLc3jcUzrmaRak85jjrYffLT5OcJyzAwECCBCAqWm+UF/J+KiNxkcsvkTx0huwtz/aeGwoPtKuYY/mMwp3uoDjosRH/untYhbk0U6EbIiPCY9z98KEN5wsAAECMJXRW7uxUvHRi4s4ZgOs7qta5329l1Zn4LmbIiM83v69xkbpgx/rHLeNuPfsjB/3NI9577Hs/ln6mafv5THxcYLj3L694WQBCBCAsw61nnrjRu/pJasRH8d9RD4DUut/qdiLlGzn2YEBe/ujNzZimv3Y7c5+xFLULHx8dINzaWZB5hYf+buyTWcMQIAAnN3mwA5Yyx4fw+vP42B8FDMjh0/DSgXSiYxObHTefLT1u41uiKQgudPsxyLGRyHNgnQvPlnZWZC5xkf+7oO0E5YIAQQIwNkDZNLrVyzHzMed4qP4srHzamAWpJ0P2D8SYu3RtENWzBfuj97nwsdHflvnse98Mb31eLz1cF18THCcs730uu6UAQgQgLO5NtkMyBLEx9inSHXCY0x8pFcxlGZD0izIzpdC+8XYiM3mRtz76kDADNx9tuDxUdjvXzyxUtvynkt85B920A12AAECcAatrQkGVMuz5mNk9iPEgS9VnvkIpZd8FmT7+ZBtNUPry1/sfWZt9EvFisRHoTsLcrMqsyDnFh95WOYzINedNAABAnC2QWp9JeIj3VwbvS32bozxMD4O14HUuovSex+bvdQJkxc/F7Lnng+xFQZnPkqzJpWJj6RCsyDnGh/9CNmtO2kAAgTgLFo79aWPj+G7jkMzIfHwaVf9p2LF2sDbsdV52em83dzqHravxH6kHF48ZBqHbo7xUdj+0/R6oWdBFiI+8k9reQoWIEAATj0Ee+qNjd5//V7u+LjD7Edxw+FMRm3ggoT5069eHLz/uN99KR732LUgVYiPpNkZzB/kYfUh8XEH2X7aCavu7AEIEIDT2RgfIEt4nY9jZj+KmY8QS5fzKN9lOkTN0a/RTlGSxcNZkLLaSQ/DOcVHYTdfC9KItx5uiI/jAsROWIAAATiLzdDaXfr4OGr2o78IPZSfhlWKiSJKto/Yzncvpv8gXv7Qw1mQKsVHkmZA0kuMC7MWZOHiI7+LfCeshlMHIEAATiNrXc+vB7HM8RGPmv3oviOWr2Aea4O7X6U/jpj9KO60/dU4Gi7l8IkzOGbTjo/C7jP54Dp+9KFzH2AvZHzk/2byGZBrTh6AAAE4jYEF6EsYH0UEDAfJmECJsTZwe39GZDse+7jTfxDPtg8f0clmQRYoPtJjSTMgzXygf66zIAsbH/0I2a87eQACBOB0A6nNpY6PeOedr2K5HIYXke+nQXm84+POt+c9bhakCvFR2Ml3xEqzIDfFx1HaDScPQIAAnHRY9tQb692nXy1pfBwVJGEwRAbXgwzFyHac6HGna4IUsyD9RzhwVfWKxEdeU83utUHOYRakGvGR+mPbTliAAAE4hXpobS1nfJR2tBp4u/z3cbMf5RmTNPvRnvxxF7Mg8Y6zIAscH4Xujlj1ec6CVCY+8j2ZD7r/fgAECMCJRlKN0G4uX3yE0cF/7H3tcbMcR05Q7MQTPe58FuSlwbsfiJpYkfjIa2q+syCVio/8zzxAXJAQECAAJ3Tf0RchrHB8DK/j6A38Y6gNzHyULzo4MktSnv04weNu3469Z7WVZkFqUxwUzyM+CmkWJLZnPgtSufjIf9D58+3shAUIEIATaW2d8r/gVis+Yohjn5LVv3lgG97OS9Z52Yqne9ydz836z2qrlb5eHPzaix4f+ffSidO9Z9NbT3QiZEN8DB+ffTMggAABONlguXWKAVSFFpwfFkh39iMMRkd/16rhh7lbLpOTK2ZBYiwFUG0GA+B5HM+9P0uzICk+HhMfw7e3BAggQAAmHlM99YaN0N4/4X/VrkZ8lC80OG7b3cMba6M7VGVFgJzhcXfuo/1SPHws47b3jfM6hmf9+bWLWZBHpzkLUvn4yH/O+xvxE+/YcDYBBAjAZDZDe3e54iOO+cvwFrshjN2pamD2Izv7YDa7ndYpx8HwOE2EnGd8FKY8C7IU8ZG/v9n9dwQgQAAm0rsGyJLEx8BnxiO33R2JjpHZj2xqA/72cdvyzvwYTnGAnn5P8m1546Pxo68703/xX5r4yH9f9gUIIEAAThQgB5NcA6Qi8ZE+rTb0+eW1H6WHduTsx1bWjZApDfjThQnT1rylBhqdBVn0+CikWZCsmeLjCfFRBMheem0nLECAAEykvXdjaeKj/6XLT7sqRUj5QoPlh1le6tHuvLE3jQHt4H0UFycMR82CxArER3E/O2lb3nAz/t7r6isfH/nHpp0G2mZAAAECMFmANDeWJj7y2Y84clt57cfhzle10YeZbtiefnzkAZJmQfaHPuK4WZBFjY/0R7owYfe6MSe6OOFSxkf/B7xbdzIBBAjARAOn465hUL2tdmMsh0e5Osas9Rh4yLH7tKu9KWz3e1TrvdhbkzJuFqRW+tRFjo/eY427X0x/vZn97mSzIEsdH/m/o6YAAQQIwB3HWk+9YTNkB8sRH3HMNTaGd76KQ7Mf5QUZ6c/t2cVH/t79Yr3ymLUgVYqPYhbkYCvdfMe1IEsfH/nnNjvf5zsaziqAAAE43sb4LXgreJHBgUH8EbMfYz+z947UYXuz/x7SLMjRa0EqEh/FMU47YsXa29q/81BjpeMj6ZZl3SkFECAAx2uE1m7146O/89XwzcfPfuSL1YupiO35fA/5LMjuQBv1X01naD2n+Eh/Nre7syBx/FqQlYmPPECaAgQQIAATuDZ4DZBqznwMPIwJZz8Ghvtp9uMgzu17yF4YngWp2MxH6D72vN+6O2I1Dn57cBZkpeIjv5/8qYw3nFIAAQJwnOYL9WWIj5PPfpRmPs40+3G6z0vXBEm7YpUaafLrgixSfKSX5lbImmkWpPb4ysZHob1Vd1IBFs26QwAslJg1Kh8fw9f6KH/I8OxHLz4GvvqpZz/O9j2k64Ks3VNqp9oiDNBPFh/F8c22vhBq9z3Y2P/fH25c+tZvfGEl46NblgIEWDhmQIDFaY+n3rDRfd56heNj3MB9+Krn5dmP8gC7eLmdncP30Bm0d6KnfXvoHk81C3LO8ZF1bjvYDdnu8yFcufihlY2P/H7TTlg/4oKEgAABOGIQtjm6AL1i8RGPXvvRf4pQPzji6LVA0q5X7fkPiosrtec7YrWPuC5IVeIjvZ033Ha49B9+bX1l4yM93vZOeqPu5AIIEIDxNns791QzPo74kOG1H6G03GPk7nbinL+Hw/jIdQbuxSzIwFqQOMlXWpz4qN1zb7j87d8ZwoXO/82tanzkP89m998VgAABGOuIa4BUID7Kg/SBAXttYO1HLB53+WJ/p579mHJ89LRvd2dBBq4LUpv9Y5lqfFz/3lBbv7ja8ZG/me+Edd2pBRAgAOO0tibfMnSRZz5qgxczLwdKseB8ZKfbE89+zCY+cqVZkFDM3hw7CyI+FjI++kW5U3dyAQQIwPhBWX3Cj1us+BheqN3/e21g5iP2n3tVG90Na+cksx8zjI9izJpmQQ5KA/1eEIiPisVH96fpKViAAAEYP06a4L/UViA+RmYMygvOw+Fi9P4nZuEEsx+zj49clsbvcSCkRr9X8bH48ZF+lnt2wgIECMDI8OnJRxqh3axWfBzzof1td2N35uNw8FwbvcvdOOHdzyk+inHrdtqad6gP4tD9nPkhiY+Zxkce9nvp9YazDCBAAAZtHLsD1gLHx1EXHewOmss31gZnP/JRfphw9mO+8dEfu74Y+9cs6T8EMx/ViY/8Q/KF6A2nGECAAAzaPHIHrEWNjzj+ttgLjfJ1Pkauq3Gi2Y/ziY+8j7bza9n1H0U5qOI0jqv4mP3jzfIZkGtOMYAAARgYJLWud/d+rUh8DH/EyI5XceSzR2Y/0re7HWf8PZw+PvoP86vdWZB8tiZO4yGKj7nFR/+HaCcsQIAADGptbVQqPmIY3RWqP9MRS38/ZvajAvGRt+F+53724uCjOvUsiPiYe3x0NZxkAAECMDCmOmhUJj6GH2Ic3Blq3EMvD6hzafZjLy58fBSPJa0FCeNiqhcRJ1pELz7m/3iz7bQTVt2JBhAgACHfAauejy6rEh9Hzn4MrtMuZj9Gvp309+3qxEc+ft3vvhS3DO6IJT4WOj7yH2C+EF2AAAIEoKceDraqER/DY8z+4DkeXvvjqMuFFLe3wjGzH4sXH4XW8/FwK+ETzYKIj3ONj/zT7YQFCBCAska+BW8V4mPs7Efs7nw1NA7tz36Un3qV/tyqXnzkt7S6u2KFcJJZEPFx7vGRtPMfnJ2wAAEC0HNfaO8vfnwMjzPL1/m40+xHIf2H6IM4g+9htvHRH8e+dIdZEPGxePFRyPbrTjWAAAFIWlubVYmPgUF2cZ2PSWY/ipft6sZH/t7SLEj/o8uzIFF8LGR8dH94m042gAABSLLTDozmHB/lGY7ydT7GzX7EMLg7VjJ29qM68VHIZ0Hax+yIJT4WLz7yf2c7G/ETP7zhhAMIEID23ikGRXOOj/7gOgwuOB963lF/9mMoRMbPflQvPvKPbHV+ZFuD395hhMXBNS/iY3Eeb5Zf0t4sCCBAgNUWn3ykEdq7ix8f/QFzHLnqeSxvwTu8HqT4wLTr1UGsfHz0m/F2dxZkYC1IzczHwsZHfrAPBAggQABC2oI3H8kucHyMG3SOWfsx9rbiS+4sT3zkshQh5XuJI087K6+BER/nHB/5z2wvvbYTFiBAAAHSvwbIIsbHmKcWde+lNjDTMTD7EcbMfrSXKD562lvFWpAwuAamNvj9i48FiI/8zfTDapsBAQQIsOLaezcWNj6GB521w9AYN8sxfG2M/pfdiUsXH7lOOLS+mvUeV23gcPWPUxQfCxEf/Z/ZngABBAiw6gGyP8EC9HOKj96aj9GdZWtHrP2oje6GtVvMfixZfPQG5GlL3uxgaIxeminKF+Rn4mMh4iMPkH27YAECBFhxWXOzKvExsNvT0Mf216eXJzvS5MB2XNr46Dfki3EgLMrx0Q+yTHyce3zk72qG+IkfbjjxAAIEWEnxyUc2e1uDLlZ8HDXoLG+7W54BKWY/hr/sbpzK4HWR4yNvyO3u1rz9GY5weCHG8ov4OOf4yH9Y++l13dkHECDAqto4egve84+PkdmPcngMfEJtcPYjH+h1XnaypY+P4qbWc/HwGiid0ChmPAbiIxMf5xof+e/lngABBAiw0hqhtbt48RHH3+XAFrvx8KKDYdwOu7vZmb+NqsRHPq7d776Un3ZVBEd/5iOKj3ONj/zD8gVJN5x6AAECrKpro9cAWYynXR01+zFuB6zR2Y84dN2P5Y6P4u32C0WY1TrR0Zv5KD0Vq3a3+FiI+21v1Z16AAECrKbmC/WFi4/0R230bmMYXONx9OxH59VWPONDqV58pIOWnt2TnlFXxEcsPe0qpPjYFB8Lcb+xJUAAAQKsqJg1Fio+hv86Zu3HuE+N5QuApAmdvXiGh1LN+CiOT74jVnraVbs3C9Jb83FFfCzO/cYDO2EBAgRYwfZ48pGNwx2wFiQ+jpn9iEPBUezyNPSBvW13VzM+knwWZOtw9kN8LOD9tnfSa9cDAQQIsHI2uztgLdZWu0fNfhw3A3I4+g6nnv1Yhvgowiw1RrHg/MpfEh8Ld7/d8HdFdECAAKsYIPuLEx8TzH6UB9mHV/wurR3ZEh/5n610WZSXhbu+Q3ws5P3G/NL1152CAAECrJh4zDVA5hwfwzdPMvsRh8Ihjen24ykeypLFR+dlbePecPV14mOh77d9u+4cBAgQYLW0ts5wLYLpX+H85LMfpUo55dqPZY2Pe9/aiY9L4mOh7ze2PQULECDAiolZfSHiY/hdd5r96I20B+4pzX4cxBM+FPEhPs7xfrs7YYkQQIAAK6S1c4oAmU18TDz7kZW23D3D7If4EB/nfr/tvfS6HgAECLAK4pONxuEWvOccH3HC2Y9SeAzcWzOeaPZDfIiP87/fUCxENwMCCBBgZWycLEBmFB+9sfVIkAzdWMx8xOGHc8Kdr8SH+FiI+EiyfAbETliAAAFWxmZoTboD1gzjIx5/1fPDq5zH8etB9npXPhcf4qNK8VFo77gYISBAgBWRta6HOMnIfYbxcVSQDK396C44r40+knTDTpzwoYgP8bFg8dEtkIaTESBAgNXQ2prgv7zOduajP+MxsK6jNjDTEUszHyN3O+Hsh/gQH4sZHzF/Glb8xA/XnZAAAQIsv+ygcW7xMax2GCLDMx+h3B/ld2ZhotkP8SE+FjY+ku6FQAUIIECA5RafbNSPf/rVjOMjDn2V/t9rAzMfh7MjtdHdsHbvPPshPsTHQsdHv6RDw1kJECDAsquH1tbCxMfI07DKC85DaSF6+T7uMPshPsTH4sdHR3s7vb7mlAQIEGDZNUK7Of/4OGZM1t92tzfzcbj7VW30Ie7GYx+q+BAflYiPQrZfd0oC5m3dIQDm7L7Ra4DMLz5GZj+K8Iilq5yH7qD8pLMf4kN8VCo+8ne1Gk5JwLyZAQHmq7W1eS7xEcffFofeVQzAx3789tGzH4scH1F8iI+jZDtpJyzXAwEECLDEstbm3ONj+KsNX9V8ZPZjzNqPtOh8N1YyPmrHxMfAbeJjteIj//eYz0ZuOjEBAgRYXu29jbnHRzEKH7otjrnbY2c/KhYf4cj4CAOL7IvdvjLxsVrxkX/YgQABBAiwvOKTjUb32gPzX3A+PPAu3jgcgA+HSDmaQvfCgxWLj5Gb+segdngshp52dUF8rE585L/bdsICBAiw1AUS6yFrzXfQOXb2I+Y7X5Uv7VEeiI98/nb14yP2txmuHb6v9LSrrBcfLxMfqxMf/U9pmQEBBAiwtI65BsjsBp2Dsx+li4GMWfsxMoRLvTQ0+1GF+Bj/cYPxMTzzIT5WMD6SbF+AAAIEWFLtvRtzHXSOzH7E/nU/Bhakl2c/ykGS/tyqZnyMXXReur18vZM18bG68ZEHyN6GnbAAAQIsp2z/5IOcMw46Y2kP2rE7Xx03jEvrcw/icsRHLM98HAaX+Fjx+Mg/3UJ0YL5ciBCYY4A0TzbIOeugs1aMzQ7/s/+JZj+2lzQ+ehdZXHt5Jz7eIj5WOj7yf5d76XXdCQqYFzMgwHyGSbdubIZ2c36Dzv4MRzz6uh/Dt5U/vzT7Ufn4GPg2SzMf4kN8CBBAgABLbKO7Be+cBp21oQFa77/8DwdKPvsxPJ7L135klY2PMBwf4552JT7ER/+u2mknrBsBYE48BQuYl0bvqsuzH3QO7XY1+pSr0jOzxs2IpF2vWtWNjyg+xMdJZXt1pyhAgADL5todA2RWA/4xaz9Gbiu/bycux9OuxIf4mDhA9gUIMDeeggXMR/OF+swHnb29ZeNAZBwOysO42Y8wOvsRW8u321VYXw9XG/9RLz6+LD7Ex3CBhPiJH244UQECBFgesb05+0Fn6X5qpVmAgUA5vC0Oj+nS7dtLEB9hND7SzMfa1avd8Gg9Lz7Ex6D2dnpdd6ICBAiwHO1x68ZGiAcbMx109u5neEF5LA3MB6IjDg7Y87d3Oq/a03g8ixcfF+6/rxsf6alX4kN8DOs+PVKAAAIEWBqbobU71/gYeRrW8OzH0MLzmHX+sp2JD/GxevGRf5n8YoR2wgIECLBEATK8AH3Wi7zL2+4OR0esDT2Uzo27cQpjPfEhPqr6tTpaL204VQECBFgWg9cAmUF8jMx+FG+XFmV31QZmP/L4SBMfO3Fqj0V8iI/KxUf+JY9ZpwUgQIBKae/dmFl8xPHvGt5itxigD3587y9nnv0QH+Kj4vGRf9mDED/+QyIEECDAEsia9ZnEx/Dfxux4NTj7UV77Ebt/tsMZZz/Eh/hYgvjI/53upNd1JyxAgADV19qpzyQ+Ync8PvzuGGoj493B2Y94+HC2zzL7IT7Ex5LER/7lU40HMyCAAAGqLd66sRmy/ZkN0Aa20S1HSGnXq8EQKcVHGm/txak9FvEhPiobH0m2l15fd9YCBAhQ9QSpj+yANY0B2jGzH6UmGRyoD8+ebIsP8SE+BiNkp+6cBQgQoOrGXwNkCgO0o2Y/xq39yJ92Vb6rtPPVqWY/xIf4WNL4yB+OnbAAAQJUXda63ntu+fQGaBPMfhxuwVvrbrU7fFHCl8SH+BAfo/9e99JOWHUnLkCAANXV2jrDxc3ince1R81+DN3HwE3pos8HcWqPRXyIj6WIj16ABDthAQIEqLSYNaY+QJt49mNwMXr/7W3xIT7Ex/iHluo8NAKAAAEq2R63Xn/KBejx2HdNNvsx9LSrwolnP8SH+FiR+Ei6MyDXnL0AAQJUVT20tqY7QLvTdT/6W+3Wxm/Luy0+xIf4OD5C7IQFzNa6QwDM0GZon2QGJN7x3Udd9bz/lKvSzEf59lwznmD2Q3yIjxWMj66GUxcwS2ZAgFm6NvlTsE4xQBtZ+xFHbyvf/Zb4EB/i447a23bCAgQIUFGtrQmvKXDnmY+BLXT7sx+10kxHHHj/4UC+dx/pmh/tKTwW8SE+ljk+8oecL0QXIIAAASooa00QICccoNUOQ2R45qP87KuBu01v70zydcSH+Fjx+DgMEBckBAQIUEHtvY0zD9Di0Ef2/14bmPk4nP04HNT3P2ei2Q/xIT7ER/ff7XZ6bScsQIAA1RJvvb5x/PqP08XH4NOwhhach6GnXaU/szDB2g/xIT7Ex4Bs3wwIIECAyjnmGiBnGKD1t92No9ERa6Pj4914hy8nPsSH+Bj9NloCBBAgQAUD5GDrzAO08dvuxsGrnIfuwH5g9iNJsx/Hrv0QH+JDfIyV7WzEj//QhtMYIECA6mjvXj/TAC2Ovy0OvasYxIc4Zox87OyH+BAf4uPobydfNGUWBBAgQJUCpFk/6wBtdPYjDlxgcDg6Jp/9EB/iQ3wc/y3tCxBAgAAVkzU3Tz1Ai90x+/AAOA7deOzsx/ZRsx/iQ3yIjzv/+91Lr+2EBQgQoBrirddvHi5AP90ArbyTVSxthxVLu14Nhkjpc9KzR3aj+BAf4uPU31o7vZgBAQQIUBkbob17ugHayOxH7O98Vd5dd2AwP/z52+JDfIiPM8t2605lgAABKiI2Qnv/7OPeGAcvQDhm7Ud/KFjcltZ+7EXxIT7Ex5m/zX0BAggQoDKuHX8RwmPGdbWhQd7Q7Ef/KufFgL50EcLxsx/iQ3yIj1Pp/BuOH397w+kMECDA4mu+UD/b2DcOXfcjDAzqjxwOHoSh2Q/xIT7Ex6l/D7J8FrMeAAQIsPiDl1MsXu3PfsSB2yaa/Sje3hYf4kN8TO33oDuLKUAAAQIs+Njl1sMbITs41RWUYyw/7ao07pt09uMgig/xIT6m9XsQ0z+qcMNZDRAgwKLb7O6AdcZB3qlnP8SH+BAfU/s9aG/VndIAAQJUIEBOuAB9aLerY2c/4tDHJP3ZD/EhPsTHVH8PYkuAAAIEWHgbJ5oBOeK5VQNXPS/Pfgzdlt9wOxMf4kN8zOL3IB6knbBckBAQIMACa+9N/pzx3sCnv4Xu0OxH/wrnpfeH4auep12v2uJDfIiPmfwetHfS67oTGyBAgMWVNScbrAwPfGql8Bha+zFyW/l9O5n4EB/iY1a/B92dsMyAAFO17hAAU9XauXOAlAY+5auYx3A4wA/jZj/C8OxHJz7a4kN8iI+Z/R50d8K67sQGTJMZEGB6Y5pbD2/e8Qro4wY+tcPQGJ75KG6Lw+PDdD87Uxgwig/xIT6O175dDwACBFhQ9WMDZGjgE4feiKVB/kB0xMHb89cpPs46+yE+xIf4mISnYAECBFhYm6G1e+L4GFmEPjz7UX7aVXojLfs46+yH+BAf4mMy2Z6dsAABAiyorHU9xPbJBz7lbXeHoyPWSnfTu5/deLZxo/gQH+Jjcu299HrDCQ4QIMDiaW1tTDLwOeqig7F8bY/QDYDD2Y/ejWed/RAf4kN8nPDz84XoDSc4QIAACzjQyRonHviM2WK3GOyX66R/V2eZ/RAf4kN8nFyWz4Bcc4IDBAiwWOOcWw8PLkA/arA/EB6lG0dmP4qBf+mG9Oyu7VMOqMSH+BAfp9eeYHttAAECzFk9tLZONvApr/0IgwP+8r67/bsTH+JDfJzT70G74RQHCBBg0WyGdvPYgc9xaz/CyOxHHNz9Ks1+7J1iUCU+xIf4OLvuTlh1pzlAgACL5Fpo759oPFhe+1He+SoOD6DSX7fFh/gQH+f2e5DlC9EFCCBAgAVysLU50RDwuLUfQ9f/6H9g2vnqpLMf4kN8iI8p3redsAABAizc4Kc1+YXKhne+Km3BO/YChS+JD/EhPs4tPpL2dvo3bicsQIAAC6S9t3HHYeCxsx9x9GOS9B9eD04wuBIf4kN8zOjrtOtOdIAAARZj/HPr4cbE6z/Gzn7E7uB/4LZw8rUf4kN8iI8Zfq0TzHICCBBgxgavATJuKHjk7EccipOSk8x+iA/xIT5mK9vZiB9/+4bTHSBAgMUIkIOticaG/et+pLFTFgcDIITTzX6ID/EhPuYQIPlCdLMggAABFkB79/qRw8HyrlalwMifdjU0Zhy47kfa9WqS2Q/xIT7Ex5y+rgABBAiwMAHSrB/5vlopPELt8GlXMYyuBymPJXfEh/gQHwsTH/m/8+302k5YwJmtOwTAmWXNzbFDwlgeHtb6u13F4et8xDGzH23xIT7Ex8LER/8xtM2AAGdmBgQ423jk1sP1I3fAqh2GxvDMR/G0rJEx1SSzH+JDfIiPc/qPDXsCBBAgwLnrBMju+GFheQakNPNxuDakdhgGxefs3mH2Q3yID/FxjgGybxcsQIAA564R2s2x8TGyCH149qM8tsp3xQrH73wlPsSH+Djnx9MM8eNvbzjtAQIEOE/XjroGyOCVzg+DI5ZmPwbGWLvx6LGl+BAf4uP8ZXvpdd1pDxAgwPlpvlAfGRrGw6ddDSww739AbXT9R5r9OGrth/gQH+JjER6UAAEECLAAstbmUQOo4S12iyAIccw466jZD/EhPsTHYsRH/ke789K64cQHCBDgfIYktx7e6AxGNgaGh72LDA6s94iD48eJZz/Eh/gQH4sTH/1/r3t1Zz9AgADnZTO0dkYHUL0LDI7cfNTsx9aY2Q/xIT7Ex+LFR35TS4AAAgQ4N/W0AD2WBlCDMyGhtO/u4XBm4KKDacvdvSg+xIf4qEJ85Dcf2AkLECDAuY1P6qG1Wxr9h/7sRxwJjtrocCbdsC0+xIf4qEx85P/RYDu9dj0QQIAA56C9d2Ngt6vy2GXM2o+B64Ekae3HXhQf4kN8VCU+8n+3+bbbrogOCBDgHGTN+mAdDM5+HG7BWxt/gcIt8SE+xEel4iP/kIP0+roTICBAgPkPVQ626wNRUYxf4pix1fA68zSG2Y/iQ3yIjyrFR6F9u+4MCAgQYL5DlY8+tBmy/aHAmGD2o3ha1rb4EB/io5LxkX9421OwAAECzH0Mle+AderZj4MoPsSH+KhifOSfku+EJUIAAQLM1ebhDlgnnf3IxIf4EB9VjY+knf/brzsNAgIEmJ/s4FrI2qeY/ej8rSk+xIf4qGx85J960P2PEAACBJibVnkBem0wOMqhULotH++8lIkP8SE+qhwf+X+A2EtXRLcTFiBAgHmOX7LG6FOuhq7zEYauer6bda98Lj7Eh/iobnz0I2TfxQgBAQLMR/Z7D9VDuzl27cfIbf1P6tyyE8WH+BAfyxAf3X/UDWdDQIAA8xrD1GPrdj8WwrjZj9KsSP4qXfG8LT7Eh/hYjvgI+dOw4sffXndCBAQIMI9hzGaaARme+SgWnA+MvdJf0rKPodkP8SE+xEeo9vG3ExYgQIA5uhbbBwMzH/3Zj1grBURv0LM7OPshPsSH+AjVP/7dnbAaToeAAAFm72BrM5SfclWe/Qilp12lP4dmP8SH+BAfYTmOf9oJK4RrToiAAAFmLzuoF2ObfmsUMdEbiB3ufHV4IRDxIT7ER1iu45/t150QAQECzF57vx7L1/YI3ZgYeNpVPjgJ/dkP8SE+xEdYvuMfWw0nRECAALNtj995uBHTFrxhMBxC6WlX/fHYdhy5Orr4EB/iY4mOf7aTdsJyPRBAgAAzlV8DZHD2I+YzHwNjsbTofDeKD/EhPpY1PvIAyf9jxKbTIiBAgFmOb+rxYKsUD2Hkyue5bfEhPsTHUsdH/iUPBAggQIAZjzfau9dDOTrKFyEstDt/343iQ3yIj2U//u3t9NpOWIAAAWao1awf7nwVB8Y//bjYFh/iQ3yszPHP9s2AAAIEmOFQJ2tuHl4ApFbagrf3/vSMjN0oPsSH+FiV4x9bAgQQIMBstP7Fw/XQ3j9ccB7HjIO2xIf4EB8rdfyzvQ07YQECBJjRcCfW48HOwPAnlodCaUOcZhQf4kN8rNLxtxAdECDADMc8jZgVW/B2A6NWfve2+BAf4mPljn+2l17XnSABAQLMYthzLV0DJBQxEUpb8aab96P4EB/iY9WOvwABBAgwM/sv1Iev7dF/CtbtTHyID/Gxisc/pn23WzecIAEBAkxfNrrbTS2NidIVzw/Eh/gQHyt7/LO9uhMkIECAqWp+5KGNToBs5E+/CoOLz7PbQXyID/Gxysc/2xcggAABpqwWNmNrp18atWJMtBu6Vz4XH+JDfKzu8Y8HIX787Q0nSkCAANNUTwvQY69Gij+z21F8iA/xserH30J0QIAAMxif1WNrtzsB0hsYxa3OWy3xIT7Ex8of/6wpQAABAkxZe6+/y02tt9tVmv0QH+JDfDj++cUI7YQFCBBgugHSrJfHbNlW58+sN1YSH+JDfDj+2e6GEyUwiXWHAJhIa6cXIL3Zj63Yn/kI4kN8iA/HP7Y3nSiBSZgBAe6o+dsPbYZsv9Metfzv+exHu3QVdPEhPsSH49/dCUuEAAIEmIp8B6x8jJTC43YxWKqF2sX1cPWt4kN8iI+VP/7t7fS91J0uAQECTMNmaO91xxgvxXztR/7Uq/VOfKSZj5eLD/EhPlb++Hd3wjIDAtyRNSDAHdWyg2sxPeeq879suztkSjMf97xZfIgP8eH4976XmAfIdWdMQIAAZ9farqe152n2I40zUnzc/SbxIT7Eh+M/9L20i80qAAQIcAa10G6EVswXn4dLnfh44+vEh/gQH47/mO/FTljAnVkDAhyr/Tuvq6enVrS+Ij7Eh/hw/O/wvWR7IX78r9SdOQEBApxFPbt9O8SsEx9vEB/iQ3w4/sd8L+3d/JzhtAkIEODUDvazzdbtLNzViY818SE+xIfjf8z3EtsHYf/2QcOZEziONSDAsW5/Obu2fu16uHjlalgTH+JDfIiPI+y+kIW9F7dCvLx3zZkTECDAqa1949e9OnbOFLf/9NmwvvZcuOeBC2Ht1GcO8SE+xMeyxcf+Vgy7X81C1uq9P9vdcOYEjh1bOATAcf7NrXvfcbC9+/649+xWay+GF/+0Fbafy/KLEYoP8SE+Vjc+0vng9hfbYfvZdhEfL3Re3vPkL/x/P+TMCRyn5hAAk/j4ezZf+XWvar//wsX4jvzksRbClXvXwpWNSf47hvgQH+JjWeIja4Ww85V2aO7E8m3/cG09/NLX/MinXnC2BAQIMFWf/G+vX3/5n2t/sDPY+O7097X1WrirEyGXrtbEh/gQH0scH2nWMz3Vau+lw+nPrB1+d+1C+Jud8PiMsyMgQICZ+twH/+IP3nN/9qu1tfCN6e/rV7ohkv4UH+JDfCxXfHQXmA889fIPOy8/0wmPjzkbAgIEmJv/483ftf6dP7r3X1y+Gt/bCZGr6baLd9fC3fevnWGhuvgw+BUfi/K9DC8w7wTIn3b+rf/tTnh82BkQECDAufncB//iA5fuin/r4l3xx7shEvPZkMv3ruVrRcSHwa/4qFZ8pAXmKTwO9vrfV1rb8fc7Lx+wzgMQIMAihciDV16W/fL65fj2/ATTiY8iRMSHwa/4WHxppmN4gXnHh1/8Qvvn//zPfvo5ZzlAgAAL6Yu/9dq3rl+M771wKXxn+ntaqJ6elpWeniU+DH7FxwJ+F/kC8/bAAvOOj+29mP3EK//6n3zKWQ0QIMDC+xdv/I717/qx5o9cvie+7/iF6uJDfIiP85SiI8VHscA8tsO/rXV3tvqYMxkgQIAqhsiV733X/uNr6+Gni4Xql66u5SFyx4Xq4kN8iI+ZSU+zSk+3ssAcECDAUvr3f+/bv/6+/yD+8sUr8cfzk0/vQoZHLlQXH+JDfMzE4ALz/hXMLTAHBAiwnP7kA9/+mqtfl31g/VJ4UxEid99/YfBChuJDfIiPqUtXME/hsb+Vlb8XC8wBAQKshi/8xmt/4PLV+P619fBg+ntaqH7PA2th/XLVBo7iQ3ws+KHMinUe5QXm0QJzQIAAqyctVP/udzbfdeFifPfahfD1sTPovHilu2PWhUvTPD2JD/Gxmse/CI/RBeaf/JgzECBAgJX1uX/02gcuXY2/sH4p/mSxUP3y1bU8RM5+IUPxIT5W7/h3F5iPu4L5Jz/sjAMIEICef/Nfv/aVr3gwe/+Fi+Ed+Qmqt1D9yqmvqC4+xMdqHf/jr2D+SQvMAQECMM5nf+01r7v75fn6kO9Of0/rQ/Irql89ySlLfIiP1Tn+owvMc70F5n9igTkgQAAmCpF/9JofvOf++KvFhQzTupB77p/kQobiQ3ysxvEfv8C8uIL5H1tgDggQgJP6SOP6+ne/s/ULF6/EXyzWh6SF6vc8cOGICxmKD/GxGsffAnNAgADM0Gd/7TUPXLw7/K3L98THitvS2pD01KzD9SHiQ3ws//G3wBwQIADzDZEHr9wbf3n9cnh7fhJbK0JkVqcz8SE+FoMF5oAAAThHz3z4NW9dvxjfe+FS+M40cDzdQnXxIT4W//hbYA4IEIAFkdaHfM+7Dt61fin+UrFQPa0PSSFy54Xq4kN8LPbxP2qBeSc8fqoTHn/kDAAIEIBz8s8fes2Vh34qe3xtPfx0+UKGKUTGL1QXH+JjsY//uAXm7YP4M6/4a5/6l/7FAwIEYEH8u/d92yvue2V878Ur4ceL21KEnOxChuJDfJyf4QXmHS90wuPnv+7HPvUb/oUDAgRgQf3xf/9tr7n3G+JvFBcyTPFRhIj4EB+LePyHF5jHLGx1fm//u2CBOSBAAKrj8//jt/7AlZeFdEX1B9Pf00L1u+9fC5furokP8bEQjlpg3nl5Tyc8PuNfMSBAACrmnz/0mvXv/RvZu9YvhfeXL2SYQiRdWV18iI9zeRRHLDBvbsef/4b/7FP/r3+5gAABqLjP/tq3PnD5aviF9cvhJw8XqtfOsFBdfIiP0xleYN7xmdZe/AkLzAEBArCcIfLquzbCuy9cDO9IA9LiQoYnW6guPsTHyVlgDiBAgJUOkQdfd/fL8/Uh/YXqd99/YcoXMhQf4sMCcwABAlDyhf/pwb96+Wp4X3Ehw7RQ/eoD07iQofhY9fiwwBxAgACM9c++59Xrr/vJ2i9cvBJ+sbxQ/Z4HLpxxfYj4WMX4sMAcQIAATOSz//DBBy7fG/5u+UKG6Yrqacesk68PER+rGB/7W2mdR9sCcwABAnCiEHn1XS8PH7hwMXxffqI88UJ18bFq8ZHWeWw9a4E5gAABOINnPvTgWy9eCe8uFqqn9SFp297jF6qLj1WKj3azu7OVBeYAAgRgKtL6kIf+81q6kOEvFQvV0/qQFCKjC9XFx6rEhwXmAAIEYKbS+pC7NsLPra2Hny4Wql+6u5Zv3dtdqC4+ViE+igXmey8OXEjQAnMAAQIwG3/0dx98xf3X8vUh7yhuu/KyWrjr5bO+kKH4OO/4GLfAvBMiP/XKv/7HT/qXASBAAGYqLVS/++Xhw2vrsX8hwyv3reVPzRIfyxUf4xaYN3fif/UN7/zUB/1LABAgAHP1+V9/9Q/cdV/4YPlChnd/zVr+9CzxUe34GLfAvPPy99fWw/stMAcQIADn5n/7rm9Zf/hvXkgL1d9fvpBhelrW9K6oLj7mFR/jFphn7fBP1i6EX7LAHECAACyMz/7qqx64slH7uU6I/GJxW7qQYQqRs11RXXzMIz4sMAcQIABVDZFX3/Xy2rvLC9VThEx+IUPxMe/4sMAcQIAAVN4zv/nqgQsZpvgoQkR8LEZ8WGAOIEAAls4XfuPVf/Xy1fC+8kL1q1+7wOtDViA+LDAHECAASy0tVG/87IXHa7XwWHmhetox68KlBToVL3l8WGAOIEAAVkpaqH753tqvXLwSfqK4bWEWqi9xfBy1wLzz8p5OeHzMbyaAAAFY9hBJC9XTFdW/Lz8Z9y5keG4L1Zc4PsYtMG/tx59/xX/6qX/mNxFAgACslLRQ/dLd+fVDXpv+ntaHpNmQy1fneHpe0vgYt8C8fRD+ztf92Cff7zcPQIAArKx/+h319dc/djldyPCXioXqaV3IPV8zh4XqSxgfwwvMk6wV/o4F5gACBICS4kKGF9bDT5cXqt/ztRdmsz5kyeLDAnMAAQLAKTzzm6/65vXLtfeWL2SYFqqnHbOmtj5kieLDAnMAAQLAFHzpt171nRcu1v6HtfXwPfkJu7dQ/a6NM1bIEsWHBeYAAgSAKfv8r7/qB+66r/bB8oUMT71QfUniwwJzAAECwAylheqP/JeXH+1EyLvL60NSiEy8UH0J4mPcAvNOjPw3nWPwPgvMAQQIAFNWLFRfvxR+sbjt0t3piup3WKhe8fhIT7FK4VFeYN5qxv91/VLtFy0wBxAgAMw+RF59zwO1dP2Qv1zcli5imGZERhaqVzg+xi0wz9rhX69dCH/bAnMAAQLAnD3zm69668UrtcfLC9VThKQYqXp8pAXmaVvd0joPC8wBBAgAi+BL//jVf6N8IcP0dKy771/Ln55VtfhIC8y3v5Ll6z168gXm//JXbn/gP/nEl1p+2gACBIAFkC9U//nLj9dq4bHaWjxcqL4xhyuqTyE+0oUEt59tW2AOIEAAqJLP/INveeDu+9f+wfCFDFOIzOSK6meMDwvMAQQIAMsRIq+++rVrv1FbCw/lJ/y17kL19DK1K6qfIT4sMAcQIAAsoWd+8y+89dLd+Y5Zry1C5O77L5zuQoZTig8LzAEECABL7H+5/o3rjZ+9610X76q9r/PXjXRbuqL61QdmuT5kND4sMAdAgACskLQ+5K6X137uwnrtp8tXVE87Zl24NM3/SxiMDwvMARAgACvsmd/8C9+8frn23uGF6lfurU0hROJAeKSnWllgDoAAASB85Z++qtGJhF8pLmSYpABJC9XTzMjJd82K+YLy5k4MzdvZwIxHbId/XbPAHECAOAQA/Nk/edVfuXAxvL/zZr18e4qRIkTWO2+nBezlGZK0liMFR6vzZ1pQfrAby+s7Cp/pvLynEx4fdqQBECAA9KUds9Yv1x7txMj3n+gT49jdrn5776X466/8iU896cgCIEAAOFJarH75ZbU3XlivNWprobG2Hh68U3zELPzbzpt/uHYh/F8vfbH9u9/02J8850gCIEAAOLG0je93//iVb37ZK9a+Yfh9ndj44jc9+sf/zlECAAAAAAAAAAAAAAAAAAAAAAAAAAAAAAAAAAAAAAAAAAAAAAAAAAAAAAAAAAAAAAAAAAAAAAAAAAAAAAAAAAAAAAAAAAAAAAAAAAAAAAAAAAAAAAAAAAAAAAAAAAAAAAAAAAAAAAAAAAAAAAAAAAAAAAAAAAAAAAAAAAAAAAAAAAAAAAAAAAAAAAAAAAAAAAAAAAAAAAAAAAAAAAAAAAAAAAAAAAAAAAAAAAAAAAAAAAAAAAAAAAAAAAAAAAAAAAAAAAAAAAAAAAAAAAAAAAAAAAAAAAAAAAAAAAAAAAAAAAAAAAAAAAAAAAAAAAAAAAAAAAAAAAAAAAAAAAAAAAAAAAAAAAAAAAAAAAAAAAAAAAAAAAAAAAAAAAAAAAAAAAAAAAAAAAAAAAAAAAAAAAAAAAAAAAAAAAAAAAAAAAAAAAAAAAAAAAAAAAAAAAAAAAAAAAAAAAAAAAAAAAAAAAAAAAAAFsf/L8AAI/JMASEm3zkAAAAASUVORK5CYII=;" vertex="1" parent="s_mm2p-20OtG_nOUa05g-20">
          <mxGeometry x="-22.5" y="20" width="120" height="90" as="geometry" />
        </mxCell>
        <mxCell id="s_mm2p-20OtG_nOUa05g-21" style="edgeStyle=orthogonalEdgeStyle;rounded=0;orthogonalLoop=1;jettySize=auto;html=1;exitX=0;exitY=0.5;exitDx=0;exitDy=0;entryX=1;entryY=0.5;entryDx=0;entryDy=0;entryPerimeter=0;endArrow=block;endFill=1;startArrow=block;startFill=1;" parent="1" source="yHpqSOsJD35er9uTnDVC-13" target="yHpqSOsJD35er9uTnDVC-12" edge="1">
          <mxGeometry relative="1" as="geometry" />
        </mxCell>
        <mxCell id="NfaXuaNdWtu9nhoCSl9H-1" value="" style="shape=image;verticalLabelPosition=bottom;labelBackgroundColor=default;verticalAlign=top;aspect=fixed;imageAspect=0;image=data:image/png,iVBORw0KGgoAAAANSUhEUgAAAYAAAAGACAYAAACkx7W/AAAACXBIWXMAAC4jAAAuIwF4pT92AAATR0lEQVR4nO3d33Ecx7UH4JktvZM3AtERiI5AcASCIiAdAaEqvBN63yqDERiMwGAEJCMwEIHBCC6RAOZWr8/qQiAALoCdnZ4+31e1JcuShdmB3L/u0//6YRg6APJZ+J0D5CQAAJISAABJCQCApAQAQFICACApAQCQlAAASEoAACQlAACSEgAASQkAgKQEAEBSAgAgKQEAkJQAAEhKAAAkJQAAkhIAAEkJAICkBABAUgIAICkBAJCUAABISgAAJCUAAJISAABJCQCApAQAQFICACApAQCQlAAASEoAACQlAACSEgAASQkAgKQEAEBSAgAgKQEAkJQAAEhKAAAkJQAAkhIAAEkJAICkBABAUgIAICkBAJCUAABISgAAJCUAAJISAABJCQCApAQAQFICACApAQCQlAAASEoAACQlAACSEgAASQkAgKQEAEBSAgAgKQEAkJQAAEhKAAAkJQAAkhIAAEkJAICkBABAUgIAICkBAJCUAABISgAAJCUAAJISAABJCQCApAQAQFICACApAQCQlAAASEoAACQlAACSEgAASQkAgKQEAEBSAgAgKQEAkJQAAEhKAAAkJQAAkhIAAEkJAICkBABAUgIAICkBAJCUAABI6ge/eDLr+/5F13Xl87zrupfxKtb/3XXlrz2741V9vvHnX7uuO7vxn78Ow3B2y/8WJtMPw+Dt07y+719Go17+uBcN/k8TfO/LCITyuSh/HIbhk38DmYIAoEl93+9FQ18+P8/gO553XfcpguHTMAwXFTwTjRMANCFKOfvxmUOD/z3rQChhcFr3ozJXAoDZirLO62j0f2z4N1nKRiUEToUB2yQAmJW+759Ho/96ohr+1EoYnJSPSWWeSgAwC9HbP+i67pXf2B8+RxCcVPI8zIwAoGoxmXvUSF1/LF+6rjuOMPja5ldkDAKAKmn4H+UyguBYELAJAUBVotRzrOF/kjIiOFIa4nsEAFWIyd3S43/jN7I1ZSnpgY1m3EUAMLm+7/djZctdRy3wNO9iRKAsxJ8IACYTvf7S8P/itzC6UhZ6bTTAdU4DZRIxyXuh8d+ZslHuY9/3x0m+LxsQAOxc3/el1v9RyWcSb/q+P4ujM0hOCYidiZLPqRU+VShLRvfsJs7NCICdiOWdnzT+1Sijr3/3ff86+4vITAAwumuNf8aze2r3zyjJkZASEKO61vir99ft/TAMRgPJGAEwGo3/rLzq+97O4WQEAKPQ+M+SEEhGALB1Gv9Ze2VOIA9zAGxVrC8/0/jP3t8dJtc+AcDWxDp/q33a8TdHR7RNCYhtOtH4N+XUjuG2CQC2IurGzvVpy7PYuU2jBABPFge7vfUmm/STA+TaZQ6AJ4m6/1mcNjlnl/E9yudrzGUUZ5ueox9BWJRVUOW9lD9/0cC7KX4dhsFooDECgCfp+/50pqWfyyhvfIpGfrRD0aKO/jICYX+mgVDe1wuXyrRFAPBo0eP9OKM3+CUa/ZMpT8GMQChB8Hpmk+aOi2iMAOBRZlb6+RCNfnUljNg0dxCBMIe9E5aGNkQA8Cix6qf2id/3cRfuRQXPcq8I1IP41BwEX4ZhsDS0EQKAB4sSxn8qfnOlx38wh4b/pmtBUHO4/jYMg5VBDRAAPFgcGPaqwjfXzMXnEbInlV6gY0K4EfYB8CAx8Vtj4/+urLRppT5dRi/DMJR3/Vs0uDV5FqMUZs4IgAfp+762ax0vo9ff7Br1mCiu7ZgNo4AGGAGwsej919T4n8fF5k1vUIolq3sxt1ELo4AGCAAeoqY14OvGf7L1/LtUetrDMOzHyqZaHMSkNTMlANhITErWUvtfN/7pyg+xEauWEHhWWaeABxIAbKqW4X7axn+tshBQBpoxAcB3xTC/hp5e+sZ/raIQ+LHv+/0KnoNHEABsooZjCtarfdI3/msRAucVPIoy0ExZBsp3VbL003HEt4jR2UUFAf0/wnl+jAC4V0z+Tt34v9P43y4a3Rp64MpAMyQA+J6p/499PgyDicZ7RDi+m/gx/I5mSAmIe/V9fzbxDlTHD2+gklLQX+Z4AF9mRgDcKco/Uzb+7zX+m4lS0NS98L0N/h4qIgC4z5Tln0tlhYcZhqGcF/R5wkcwDzAzAoD7TNmjO7aq5FGOJvzZc7wbOjVzANyp7/up/uVw0uQTTLxs15zNjBgBcKs4+XMqJxr/J5nyti7zADMiALjLpOUfv5XHi2WhXyb68QJgRgQAd5nq/8gfLCXciqlCtMYrLLmDAOAuLyd6M3b8bsdk73Hi8iEPIAD4RlxBOMWGostYysgTxShqqhvEpuo88EACgNvo/bdhqvcpAGZCAHCbFxO9FcsHt2uq9znVvz88kH0AfGPCdeSOFN6yqc5yGoah3/XP5OGMALjNFD24c43/KCYZBcQ5UlROAHCbHyd4K8o/41AG4k4CgD+JFUBTEADjmOq9Wgo6AwKAm55P9EbO/Ca2L8pqU+0KpnICgJum6Lld2v07qinC1QhgBgQANdD7H5f3y60EADdNMQeggRrXFO/XZrAZEADcNMUcgOWf45ri/U55NzEbEgDUwAqgEbmghbsIAG4ydGcrJlxSzIYEADdNMXQ3BzC+8wl+5lRLitmQAGByjoDYCe+YbwgAgKQEAFOzS3U3bLTjGz94Jd+3WK4OttqLCdL1xNb1W7POY4h9EZ9PV4fzW9nS9/0UNVsN025M8Z7NAVROANwhGv2Druv2Nzgdc33e+voM/beL5eqP5Uq+06vDbi7XHFq1wTa9dMtb3QTADYvlqqd/tKULUX4pn8WyO+66/36uDk3GAXUwBxBKj3+xXJVtPo5wG1YpFb0tw/DFsnu95X82wKMIgP82/qXU858dXINYguCfJWiixAQwmdQBsFh2zxfLVY3yHzv+0SVozqLcBDCJtAFQGv84g+aXiR6hjAY+KgkBU0kZANca/582+NvH9k8hAEwhXQBU1vivCQFg5zKOAE4qa/zXjhdL6/CB3UkVALHaZ6qa//eUOYHTGKEAjC5NAMSyy12v9nmoH2MTGsDoMo0A5nIcwxulIGAXUgRArLcfe5PXNh3P6FmBmcoyAphbWeVnowBgbM0HQDSkc+r9rx3U8RhAqzKMAOa6vv6VFUHAmDIEwH4Fz/BYc352oHJNB0CUf753mUvNHBYHjKb1EcDcG1ABAIym9QCY+5n7cx69AJVrPQBmv5TSnQHAWFoPAKtoAO7QegDUeOrnQ7k6EhiFO4HrJwCAUQgAgKRaD4DLCp7hqT7N+/GBWrUeAGcVPANAlZSA6neR/QUA42g9AOZePrm8OhQAwDiUgOqmhAWMxgigco6EBsbSdABcHXZfu677UMGjPFa5yOZisXQsNLB9GSaBTyt4hqd41nXdvxbL7tRoANimLAHQwn6AX2I04HA4YCuaD4AoAx1X8CjbUEYDHxfL7thoAHiqLPsAjhsZBay9KSuEJhgNfO667l3Xdb91Xfe38hmGob/+6bruL/HXfu267veYg/my4+cENvBDhpdURgGl19x13dsKHmdbfozRwLurw+5gpJ/xJUpop8MwbLSiahiGi2ub1/6Yf+n7/kXccbwX5SxgYml2Al8ddkdd151X8Cjb9maxXI0Gtnn5zfvo3b8YhuFg08b/PiUYhmE4HoZhP0YJvxkZwLSyHQXxurFS0Fq59+Dfi+Uq5J6ibDz7yzAMr7fR6N/lWhiUUcFYoxfgO1IFwNXhqoFrucF5+5TRwDAMX6OEszPDMNjtDBNJdxjc1WF30nXd3yt4lLGsRwN61sC9Up4GmiAEin8slt2nxdKNYsDt0h4HnSQEfo7lokYDwDdSLAO9SwmBxXK1ZPE0Nlnt0ocdLYd8FqOBsvpmPzbGPVmMLG6OLr7GPAswA6kDoPtvCKzLJGWfwKsd/Miy9PF1/NyyJv4k1vSPbX2wXPnZDzofKXYdr9fwv4x5hrv+3vV3PIvTWE/daQB1Krs3/WpCNMhH0VhuW1l+ehz7Ea7/zOfxM9/s8Kt+iBC6dzRQwiIa/qeOVM4jYE+3NQLhYfq+P5pgI+TvwzA8dWkyIxIAt4ggONhSieZLNH4n9zV+UaI52WEp6jJC4JvRQDT8RyOMTC7jXRwLgt0SANxGANzjWuljP0ofmzaIn6+VPzauicfPO9nxUQnlbJ+jOC7jZfz8O0s8W1JC8eChpSgeTwBwGwHwANFArzdZXT+IbX3+zVYmQScYDazP/NllGarbtBTF0wkAbiMAKjXRaGAK5xECVg+NSABwm7T7AGpXesVXh6uRwG+Nnl+0VspNn7Z8mB2wAQFQuavD1aTpy5hXaNUzIQC7JwBmoKyjvzpczTm0PBpYh4CbzmBHBMCMxGhgr9F7Dbp1CFTwHJCCAJiZMll6dbgqlfze6Ff8aQv3GgAbEAAzFTuK/9roaOCt+QAYnwCYsWujgXcNfr3jCp4BmiYAGhCXwv+tsTt2f44jOYCRCIBGlNNFY7loS6MBcwEwIgHQkNg81tJo4Gc3msF4BECDro0GPjTw7fYreAZokgBo1LWjJH6d+eax1xU8AzRJADQujlye82mbP9kdDOMQAI2LxnMXV06OyZ4AGIEAaF8LjafloDACAdC+FgJACQhGIADa10LjqQQEIxAAAEkJAICkBABAUgIAICkB0L45bwJbO6vjMaAtAqB9LTSeLYQYVEcAtK+FAHBPMIxAADSuHArXwLWRSkAwAgHQuLhg/acZf8vPEWLAlv3ghbYpLlI5nXnj38V3AEZgBNCgxXJ1K9hZA41/cVLBM0CTjAAaEr3+0mD+3Mi3eq/8A+MxAmjEYrm6Oeusoca/cyk8jMsIYObiwpfS6/+lsa9Wev8XFTxHK6ZYSmv5buX6YRiyv4PZWixXd/6Wxv9ZY1+t3GH8UgDAuIwAZqjhXv/akcYfxmcEMDOL5ep6xNMGe/1rH64OVyMbYGRGADMRvf4yKfqm4a9Zdiy/ruA5IAUBMAPR6y8lnx8b/pql8d+z7BN2xzLQyi2W3XHXdR81/sC2GQFUarFcXYR+0shu3vt87rpuX+MPuycANhQ1+JfxeX7H/6qse7546gqWOMDt7Vjf5RafI2yOdzy5/PvVoc1eMBWrgO4RvfAyKbn3wJ74ZazUKYFwumnvdqJe/x+N8A6Xl5bAObg6dMwzTEkA3CKOVTjaUt19HQb3rm2PA9yOdtgDX624ua0RjknnoxGOlfgS78EBb1ABAXDNlhv+27yPnu8fI4KJDnDbqPQSz3YQo6DHBtM6AE+uDh0NADURAP9fejneUSN8Gb3g45p6/d8T72g/5kBe3FOmKr38iyh/fdLoQ73SB0D0+nc9+dlFQ7nLpZ3vInistgFWUgfAYrkqvbyq4FHG9CV6/XriwJ+k3QiWpPF/F6dqavyBb6TcB5Cg8b+MXr/7dIE7pRsBxMRry43/hzJJq/EHvifVHECsb/9YwaOMQa8feJA0ARC7XM8aPVTNeTrAg2WaAzhosPH/Y09BBc8CzEyKEUDsaP1PBY+yTZ+j5OPqROBRsowAWjpxUq8f2IrmRwBR+//fCh5lGx59lAPATRlGAK3cMevsfGCrBED99PqBUTRdAmqg/PPh6nB1AifA1rW+E3ivgmd4iruungR4stYD4GUFz/AUu7wkBkjGCKBysYcBYOvSHgc9IwIAGEXrAaCEAnAHI4D6zb6MBdRJAAAkJQDqZwMYMIrWA+C8gmd4Kmf8A6NoPQBaaDwFADCK1gNg9uUTZwABYxEAdWuhhAVUqvUA+FTBMzzF3J8fqFjTARDXJX6p4FEeSwAAo8mwDPSkgmd4jMurw+50fo8NzIUAqNdcnxuYieYDIMpAHyp4lIdy6Tswqiw7gefWmL6P4AIYTYoAuDpcTaa+r+BRNnHZdS5/B8aX6Sygg2hca3es9w/sQtOXwt+0WK4uWP9XXU/1J+dXh7O/xhKYiVSngcayylpLQWV0sl/BcwBJpBoBrC2WqzmBmm4LK43/nnN/gF3Keh/AfmXn7LzW+AO7ljIArg5XRyzvVbA/oPT8/2rHLzCFlCWg6xbL1R6BNxP86HM9f2BK6a+EvDpcLQ/9dcdLRN+p+QNTSz8CWFssu+exAWvM0UDp9R/ExjSASQmAGxbL7kUEQZkofralf+zncrjb1aED3oB6CIA7xIhgPz6/POIfUe4hOI2GX6kHqI4A2NBiuVo1VHbpPo8VRDddxKc09meOcwBqJwAAkkq/CgggKwEAkJQAAEhKAAAkJQAAkhIAAEkJAICkBABAUgIAICkBAJCUAABISgAAJCUAAJISAABJCQCApAQAQFICACApAQCQlAAASEoAACQlAACSEgAASQkAgKQEAEBSAgAgKQEAkJQAAEhKAAAkJQAAkhIAAEkJAICkBABAUgIAICkBAJCUAABISgAAJCUAAJISAABJCQCApAQAQFICACApAQCQlAAASEoAACQlAACSEgAASQkAgKQEAEBSAgAgKQEAkJQAAEhKAAAkJQAAkhIAAEkJAICkBABAUgIAICkBAJCUAABISgAAJCUAAJISAABJCQCApAQAQFICACApAQCQlAAASEoAACQlAACSEgAASQkAgKQEAEBSAgAgKQEAkJQAAMio67r/AxrANnWMDjB2AAAAAElFTkSuQmCC;" vertex="1" parent="1">
          <mxGeometry x="-1210" y="630" width="104" height="104" as="geometry" />
        </mxCell>
        <mxCell id="NfaXuaNdWtu9nhoCSl9H-2" value="&lt;div style=&quot;font-size: 17px;&quot;&gt;&lt;font style=&quot;font-size: 17px;&quot;&gt;Neo4j&amp;nbsp;&lt;/font&gt;&lt;/div&gt;&lt;div style=&quot;font-size: 17px;&quot;&gt;&lt;font style=&quot;font-size: 17px;&quot;&gt;Knowledge Graph&lt;/font&gt;&lt;/div&gt;" style="text;html=1;strokeColor=none;fillColor=none;align=center;verticalAlign=middle;whiteSpace=wrap;rounded=0;" vertex="1" parent="1">
          <mxGeometry x="-1250" y="700" width="200" height="50" as="geometry" />
        </mxCell>
        <mxCell id="NfaXuaNdWtu9nhoCSl9H-3" value="&lt;font style=&quot;font-size: 17px;&quot;&gt;Firebase&lt;/font&gt;" style="text;html=1;strokeColor=none;fillColor=none;align=center;verticalAlign=middle;whiteSpace=wrap;rounded=0;" vertex="1" parent="1">
          <mxGeometry x="-502.5" y="80" width="200" height="50" as="geometry" />
        </mxCell>
        <mxCell id="NfaXuaNdWtu9nhoCSl9H-5" value="&lt;font style=&quot;font-size: 17px;&quot;&gt;Mongodb&lt;/font&gt;" style="text;html=1;strokeColor=none;fillColor=none;align=center;verticalAlign=middle;whiteSpace=wrap;rounded=0;" vertex="1" parent="1">
          <mxGeometry x="-262.5" y="455" width="200" height="50" as="geometry" />
        </mxCell>
        <mxCell id="NfaXuaNdWtu9nhoCSl9H-6" value="" style="shape=image;verticalLabelPosition=bottom;labelBackgroundColor=default;verticalAlign=top;aspect=fixed;imageAspect=0;image=data:image/png,iVBORw0KGgoAAAANSUhEUgAAA+gAAAPoCAMAAAB6fSTWAAAAIVBMVEVMaXFOw/hCt+8BV5tUxfhUxfgBV5sptvYBTosBQXIALE/GWTR8AAAABXRSTlMAuhC1gNiI0uIAAAAJcEhZcwAACxMAAAsTAQCanBgAABwxSURBVHic7d0LdhpZEkXRQqZVJc9/wL2wfnwC2ZZAGXHf3t0D6JUvT19IEP7nHwAAAAAAAAAAAAAAAAAAAAAAAAAAAAAAAAAAAAAAAAAAAAAAAAAAAAAAAAAAAAAAAACAqx52XNi7YcjysPsf53Zbnwrcls4LOieMzgs6J4zOC96fE0bnBXtOGJ0X7DlhdF6w54TRecGeE0bnBXtOGJ0X7DlhdF6w54TRecGeE0bnBXtOGJ0X7DlhdF6w54TRecGeE0bnBXtOGJ0X7DlhdF6w54TRecGeE0bnBXtOGJ0X7DlhdF6w54TRecGeE0bnBXtOGJ0X7DlhdF6w54TRecGeE0bnBXtOGJ0X7DlhdF6w54TRecGeE0bnBXtOGJ0X7DlhdF6w54TRecGeE0bnBXtOGJ0X7DlhdF6w54TRecGeE0bnBXtOGJ0X7DlhdF6w54TRecGeE0bnBXtOGJ0X7DlhdF6w54TRecGeE0bnBXtOGJ0X7DlhdF6w54TRecGeE0bnBXtOGJ0X7DlhdF6w54TRecGeE0bnBXtOGJ0X7DlhdF6w54TRecGeE0bnBXtOGJ0X7DlhdF6w54TRecGeE0bnBXtOGJ0X7DlhdF6w54TRecGeE0bnBXtOGJ0X7DlhdF6w54TRecGeE0bnBXtOGJ0X7DlhdF6w54TRecGeE0bnBXtOGJ0X7DlhdF6w54TRecGeE0bnBXtOGJ0X7DlhdF6w54TRecGeE0bnBXtOGJ0X7DlhdF6w54TRecGeE0bnBXtOGJ0X7DlhdF6w54TRecGeE0bnBXtOGJ0X7DlhdF6w54TRuT0nn87tOfl0bs/Jp3N7Tj6d23Py6dyek0/n9px8Orfn5NO5PSefzu05+XRuz8mnc3tOPp3bc/Lp3J6TT+f2nHw6t+fk07k9J5/O7Tn5dG7Pyadze04+ndtz8uncnpNP5/acfDq35+TTuT0nn87tOfl0bs/Jp3N7Tj6d23Py6dyek0/n9px8Orfn5NO5PSefzu05+XRuz8mnc3tOPp3bc/Lp3J6TT+f2nHw6t+fk07k9J5/O7Tn5dG7Pyadze04+ndtz8uncnpNP5/acfDq35+TTuT0nn87tOfl0bs/Jp3N7Tj6d23Py6dyek0/n9px8Orfn5NO5PSefzu05+XRuz8mnc3tOPp3bc/Lp3J6TT+f2nHw6t+fk07k9J5/O7Tn5dG7Pyadze04+ndtz8uncnpNP5/acfDq35+TTuT0nn87tOfl0bs/Jp3N7Tj6d23Py6dyek0/n9px8Orfn5NO5PSefzu05+XRuz8mnc3tOPp3bc/Lp3J6TT+f2nHw6t+fk07k9J5/O7Tn5dG7Pyadze04+ndtz8uncnpNP5/acfDq35+TTuT0nn87tOfl0bs/Jp3N7Tj6d23Py6dyek0/n9px8Orfn5NO5PSefzu05+XRuz8mnc3tOPp3bc/Lp3J6TT+f2nHw6t+fk07k9J5/O7Tn5dG7Pyadze04+ndtz8uncnpNP5/acfDq35+TTuT0nn87tOfl0bs/Jp3N7Tj6d23Py6dyek0/n9px8Orfn5NO5PSefzu05+XRuz8mnc3tOPp3bc/Lp3J6TT+f2nHw6t+fk07k9J5/O7Tn5dG7Pyadze04+ndtz8uncnpNP5/acfDq35+TTuT0nn87tOfl0bs/Jp3N7Tj6d23Py6dyek0/n9px8Orfn5NO5PSefzu05+XRuz8mnc3tOPp3bc/Lp3J6TT+f2nHw6t+fk07k9J5/O7Tn5dG7Pyadze04+ndtz8uncnpNP5/acfDq35+TTuT0nn87tOfl0bs/Jp3N7Tj6d23Py6dyek0/n9px8Orfn5NO5PSefzu05+XRuz8mnc3tOPp3bc/Lp3J6TT+f2nHw6t+fk07k9J5/O7Tn5dG7Pyadze04+ndtz8uncnpNP5/acfDq35+TTuT0nn87tOfl0bs/Jp3N7Tj6d23Py6dyek0/n9px8Orfn5NO5PSefzu05+XRuz8mnc3tOPp3bc/Lp3J6TT+f2nHw6t+fk07k9J5/O7Tn5dG7Pyadze04+ndtz8uncnpNP5/acfDq35+TTuT0nn87tOfl0bs/Jp3N7Tj6d23Py6dyek0/n9px8Orfn5NO5PSefzu05+XRuz8mnc3tOPp3bc/Lp3J6TT+f2nHw6t+fk07k9J5/O7Tn5dG7Pyadze04+ndtz8uncnpNP5/acfDq35+TTuT0nn87tOfl0bs/Jp3N7Tj6d23Py6dyek0/n9px8Orfn5NO5PSefzu05+XRuz8mnc3tOPp3bc/Lp3J6TT+f2nHw6t+fk07k9J5/O7Tn5dG7Pyadze04+ndtz8uncnpNP5/acfDq35+TTuT0nn87tOfl0bs/Jp3N7Tj6d23Py6dyek0/n9px8Orfn5NO5PSefzu05+XRuz8mnc3tOPp3bc/Lp3J6TT+f2nHw6t+fk07k9J5/O7Tn5dG7Pyadze04+ndtz8uncnpNP5/acfDq35+TTuT0nn87tOfl0bs/Jp3N7Tj6d23Py6dyek0/n9px8Orfn5NO5PSefzu05+XRuz8mnc3tOPp3bc/Lp3J6TT+f2nHw6t+fk07k9J5/O7Tn5dG7Pyadze04+ndtz8uncnpNP5/acfDq35+TTuT0nn87tOfl0bs/Jp3N7Tj6d23Py6dyek0/nnff8Yc+Fh61PZSKdd95zp9P5dCZxJ7Xe8131P29xu61PZSJ3Uuc7yel0Pp1J3EkFe97ZfutmJtJ558VwOp1PZxJ3UufFcDqdT2cSd1LnxXA6nU9nEndS58VwOp1PZxJ3UufFcDqdT2cSd1LnxXA6nU9nEndS58VwOp1PZxJ3UufFcDqdT2cSd1LnxXA6nU9nEndS58VwOp1PZxJ3UufFcDqdT2cSd1LnxXA6nU9nEndS58VwOp1PZxJ3UufFcDqdT2cSd1LnxXA6nU9nEndS58VwOp1PZxJ3UufFcDqdT2cSd1LnxXA6nU9nEndS58VwOp1PZxJ3UufFcDqdT2cSd1LnxXA6nU9nEndS58VwOp1PZxJ3UufFcDqdT2cSd1LnxXA6nU9nEndS58VwOp1PZxJ3UufFcDqdT2cSd1LnxXA6nU9nEndS58VwOp1PZxJ3UufFcDqdT2cSd1LnxXA6nU9nFLdS48VwOJ1PZxg3U9vFcDSdT2cct1PTxXAwnU9nIDdUy8VwLJ1PZyS3VMPFcCidT2coN1W7xXAknU9nLLdVs8VwIJ1PZzA3VqvFcBydT2c0t1ajxXAYnU9nODdXm8VwFJ1PZ7zVb682i7H6QfQ+nQBr32BtFmPtY+h+OhFWvsXaLMbKh9D/dEKse5O1WYx1j2DC6cRY9TZrsxirHsCM0wmy5o3WZjHWvPxTTifKirdam8VY8eLPOZ0w691sbRZjvUs/6XTirHa7tVmM1S78rNMJtNYN12Yx1rrs004n0kq3XJvFWOmizzudUOvcdG0WY51LPvF0Yq1y27VZjFUu+MzTCbbGjddmMda43FNPJ9oKt16bxVjhYs89nXD5N1+bxci/1JNPJ1767ddmMdIv9Ke0OZ0FZN+AbRYj+zJPP50lJN+CbRYj+SLPP51F5N6EbRYj9xInnM4yUm/DNouReoEzTmchmTdim8XIvLwpp7OUxFuxzWIkXtyc01lM3s3YZjHyLm3S6Swn7XZssxhpFzbrdBaUdUO2WYysy5p2OktKuiXbLEbSRc07nUXl3JRtFiPnkiaezrJSbss2i5FyQTNPZ2EZN2abxci4nKmns7SEW7PNYiRczNzTWdz8m7PNYsy/lMmns7zpt2ebxZh+IbNPh+E3aJvFmH0Z00+H4bdom8WYfBHzT4fhN2mbxZh7CVc4HYbfpm0WY+oFXON0GH6jtlmMmZdvldNh+K3aZjEmXrx1TofhN2ubxZh36VY6HYbfrm0WY9qFW+t0GH7DtlmMWZdttdNh+C3bZjEmXbT1TofhN22bxZhzyVY8HYbftm0WY8oFW/N0GH7jtlmMGZdr1dNh+K3bZjEmXKx1T4fhN2+bxeh/qVY+HYbfvm0Wo/uFWvt0GH4Dt1mM3pdp9dNh+C3cZjE6X6TN7LY+FUJu4jaL0fcSbWi/9akQchu3WYyuF2hTu61PhZAbuc1i9Lw8G9tvfSqE3MptFqPjxdncbutTIeRmbrMY/S5NA/utT4WQ27nNYnS7MC3stj4VQm7oNovR67I0sd/6VAi5pdssRqeL0sZu61Mh5KZusxgPu3+3vhb97Lc+FUJKb7MYD7t//1V619NheOn7Vp0rvenpMLz0XbPOld7ydBhe+r5d50pveDoML33XsHOltzsdhpe+b9m50pudDsNL3zXtXOmtTofhpe/bdq70RqfD8NJ3jTtX+m7rUyGk9H3rzlcvvc3pMLz0XfPO1y69zekwvPR9+85XLr3N6TC89N2Aztctvc3pMLz0/YjOVy29zekwvPTdkM7XLL3N6TC89P2Yzlcsvc3pMLz03aDO1yu9zekwvPT9qM5XK73N6TC89N2wztcqvc3pMLz0/bjOVyq9zekwvPTdwM7XKb3N6TC89P3Izlcpvc3pMLz03dDO1yi9zekwvPT92M5XKL3N6TC89N3gzvNLb3M6DC99P7rz9NLbnA7DS98N7zy79Danw/DS9+M7Ty69zekwvPRdQOe5pbc5HYaXvo/oPLX0NqfD8NJ3IZ1nlt7mdBhe+j6m88TS25wOw0vfBXWeV3qb02F46fuoztNKb3M6DC99F9Z5VultTofhpe/jOk8qvc3pMLz0XWDnOaW3OR2Gl76P7Dyl9Danw/DSd6GdZ5Te5nQYXvo+tvOE0tucDsNL3wV3Pr/0NqfD8NL30Z1PL73N6TC89F1457NLb3M6DC99H9/55NLbnA7DS98t0Pnc0tucDsNL3y/R+dTS25wOw0vfLdL5zNLbnA7DS98v0/nE0tucDsNL3y3U+bzS25wOw0vfL9X5tNLbnA7DS98t1vms0tucDsNL3y/X+aTS25wOw0vfLdj5nNDbnA7DS9+v2PmY1NucDsNL3y3a+YzS25wOw0vfL9v5hNLbnA7DS98t3Hn/0tucDsNL3y/deffS25wOw0vfLd5579LbnA7DS29zJ23WeefS7Tm3KV3nnUNvczoML73NnbThnvdN3Z5zm9J13rn0NqfD8NLb3Ekb73nP0u05tyld551Lb3M6DC+9zZ3UYM8P/teKPec2peu8c+ltTofRHnZt7qQme37wvzbsObfx0OVCNuq8T+ht/l8Y8jpvk7o9J0yzznuUbs8J067zDqXbc8I07Hz70u05YVp2vnXp9pwwTTvftnR7Tpi2nW9Zuj0nTOPOtwvdnhOmc+ebpW7PCdO8821Kt+eEad/5FqXbc8IM6Pz7S7fnhBnR+XeXbs8JM6Tz7y3dnhNmTOffWbo9J8ygzr8vdHtOmEmdf1vq9pwwwzr/ntLtOWHGdf4dpdtzwgzs/P6l23PCjOz83qXbc8IM7fy+pdtzwozt/J6l23PCDO78fqHbc8JM7vxuqdtzwgzv/D6l23PCjO/8HqXbc8IEdH770u05YSI6v3Xp9pwwIZ3ftnR7TpiYzm9Zuj0nTFDntwvdnhMmqfObpW7PCRPW+W1Kt+eEiev8FqXbc8IEdv710u05YSI7/2rp9pwwoZ1/LXR7TpjUzr+Uuj0nTHDnny/dnhMmuvPPlm7PCRPe+edKt+eEie/8M6Xbc8Is0Pnfh27PCbNC53+duj0nzCKd/13p9pwwy3T+N6Xbc8Is1Pmfl27PCbNU539auj0nzGKd/1no9pwwq3X+R6nbc8Is2PnvS7fnhFmy89+Vbs8Js2jnH5duzwmzbOcflW7PCbNw59dDt+eEWbnzq6nbc8Is3nlduj0nzPKdV6Xbc8LovCjdnhNG58Wrd50TRudF6DonjM6LJ3I6J4zOi2fvOieMzotP2XROGJ0Xn6frnDA6L745o3PC6Lygc9II/dLjj61PBW5N6RedPz0pnThKv+hc6QRS+kXn//1n04mj9PPOlU4ipR93/t8zm04cpZ/tudKJpPSLzh9tOnmU/vYc7rXzR5+nk0fpZ3v++Kh0Aq1e+q/ncK+D/qh0Uq1d+sXr9meevRNn5dJf9vzpbc5fU1c6cdYt/WTPjwZd6SRatfTjPf+VudKJtmbp5+/PjzO36SRasfSTPb/IXOkkWq/0i+ftZy/dlU6i1Uo/f39+OehKJ9Fapf/a86PvyTxezLnSybRS6eedX1l0n6cTaJ3Sf/O8XelEW6X0lz0/ft5+PXXfkSPOGqVXz9s/oHTirFD6xZ4/d27TWUh+6dXfq3086TadPOmln+75b57EKZ1Y2aW/7Pnr6/Y/qdymEym59Oc9P33l/vFDd6WTKrf0s78//9M9t+lESi39dc9fv+D+R1uudGJlln7ye69HH6B7n86qEks/e3/+B1+Vsemkyyv97e9YXl64/13k3qeTKa308/fnr3tu01lbVuknf5f6mdftNp1QSaUXe371xyaUzlpySn/d89//pIzSWU9K6ad7/vFPyiid9WSUfrbnbw/iPpm6v08nTkLpr3+vVv7WxGdiVzpx5pd+7Xsyn590pZNneukvnb+/QX8p/bORK51Ms0s/3/PjB3FfaN2rd+JMLv39efvRX6w9v3D/WuxKJ87c0s8/V3vJ/K1umw7zS399f370k69vH6594VmcTSfUzNIv9vz1/fnXClc6sSaWfrHnJ4v+1Y/YvE8n0bzS3z5XO3rg/vc/K6N01jKt9KPPz4uX7hexf657z96JM6v0y+/JnL1D/92/rah0FjWp9Menn2+v3M+euH/9e3E2nWhzSn9/DvfBot/mzbpX78SZUvrjz8v35xeL/vnfnlA64WaU/tr5lQ/Wbvay/YVNJ86E0qvOLxf9ht+dUTpx+pf+1vkh8/cfj7r19+KUTrTupR86/1m9Q6/G3Pt0GFn6f/Xr9qPWv/IjUjaddXQu/fHnz/dP0ItFP1r1T/xDLUpnJX1L/+/n8Rv0kwdx7990f2n7xm/VPZEjTtfSD50fv3QvB/39BfyXfvRZ6eTrWfr7nr//o6mXPxZ37QHcl4O36cTpWPp/Pz9+g376Rv1Gf9WidKL1K/14zy8fuZ9VfvI9d3/hAlNKv9zzs6+5H396ftt35++8eidOr9KP9rwa9F8v3U+fw93s2zJKJ1qn0g97/tGgXzx5v0vmNp1EfUq//rnaydO4s9+EvEvrXr0Tp0vpz3t+POjV47jLT9Ff3LZ1pROnR+m/nsNde93+/geqF0/d7/I8TukE6lD66fvz15fu1edr71+Cve0frymddNuXfvK52ts79GrSb/tzE0pnJVuX/rrnbz8TV6X+/tz99Ivux0/llA5tSz/b86sv3Is/U73nrHsiR5wtS/+150eD/r7op/8U09kr+ONvv97i31BWOgvYrvSz1+3nvxRXfI5+krpNh7+wVenPe37xKO7Dl+/H79PvMeVvvHonzjalP73v+cmjuKt/unbxqxN3HXWlE2eL0n91fvbK/e3bMiffmXl76H724v2Xuzx2VzqZvr/0585P36AfvXYvJv3oafvJv8t0NzadON9d+sueH79wP/4UvXyLfv8/XlM66b639Op1+1vn54v+/MMTV/5O9a6123TifGfpr3v+XHrxHr14Jnf0l6rn34i7z2fpSifS95V+9Lr9dNCvvUd//nHIk+/G3fzfcFA6i/iu0t/2/PQd+q/CXz9fu4j97PO178ncq3cSfU/pJ3t+8sz9+OO1iydxZ5l/z+M4pZPoO0p/3/OXL8Ud/+REnfpb5id/wHb0jzN5Ige9Sj953X7yyv38b1ou/vm18t9v+IZR9+ydOPcu/XzPT/9E9frvy1z8+2vf9MJd6WS6b+lne378yv3kmXvxz6kefzfu+D269+nQrPTjPa+/L3P1edzRP9dy9A+2fNeqe/VOnPuV/tHr9rMfmLnyPO7sj1q+7cW70slzr9JP9/yp/F5c/Sb99RuwV/8mXenQpPSny8yLRb/2SfrlP+Hwzbx6J849Sj97f/4652fP4o6/BHv2PO7kD1s2oHTi3L706jnclffol3+n+vzTE1tWrnQi3br08z2/Mukf/fTE68O47dh04ty29Cuv24s36PUH6a/P3DftXOkEumXpxZ4Xg37xs+7nr943jVzpZLpd6Zedv362dnD2LdhrX417bMGrd+LcqvRqz9++MlNlXj1070LpxLlN6X/0HK5+7d6t8gOlE+cWpV/Z8/cHcsdfjXv/gO0t9sdulE6cr5f+9IeRn7947zjmL5ROnK+WfnXP357GXXyO/v4O/bEppRPna6V/uOcXD+NOFv2xMaUT5yulf7Dn75+vFe/RW1d+oHTifL70D5/DXfkZ2AGVHyidOJ8t/cM9v/wHFp9LfxxC6cT5XOkfdX78Hv3opfuYzJVOos+Ufr3zK/8i06TKD2w6cf6+9I9ft/96k3782H1a5QdK55/VS//N+/PTRZ9Y+YHSWbz0371uf3vsPrfyA6WzdOl/sue/Mp9c+YHSWbj033X+6/15QOZKZ+XSf/+8PaTyA5vOoqX/wev2lMoPlM6SpT+tVPmB0lmw9Ke1Kj9QOsuV/rRa5QdKZ7HSn9ar/EDpLFX69b9LHfdN9r+jdBYq/drvOieP+Quls0zpV343Kr/yA6WzSOlP61Z+oHSWKP1p5coPfmx9KnD/0p/Wrvzgh/uM9NLPOl+v8oMfW58K3Lf0p8XH/MUP9xnJpT+dfWL+/N8F/dj6VOB+pb91/uufTFs18l+UTmzpT8eVH/6zsh9bnwrcp/SXX4F7/+dPlQ5xpT8dV7726/ZnNp04D7vnX3J9D335zh+VTp6H538a8X3QeVQ6eR5+nL9uV/ujV+/EefjhdfuFH1ufCtyndM/hTiid4NJ5o3QiS/fm/IzSifPwwzO4C0onsnTOKJ04Si8onThKLyidOEovKJ04Si8onThKLyidOEovKJ04Si8onThKLyidOEovKJ04Si8onThKLyidOEovKJ04Si8onThKLyidOEovKJ04Si8onThKLyidOEovKJ04Si8onThKLyidOEovKJ04Si8onThKLyidOEovKJ04Si8onThKLyidOEovKJ04Si8onThKLyidOEovKJ04Slc6K1B6waYTR+kFpRNH6QWlE0fpBaUTR+kFpRNH6QWlE0fpBaUTR+kFpRNH6QWlE0fpBaUTR+kFpRNH6QWlE0fpBaUTR+kFpRNH6QWlE0fpBaUTR+kFpRNH6QWlE0fpBaUTR+kFpRNH6QWlE0fpBaUTR+kFpRNH6QWlE0fpBaUTR+kFpRNH6QWlE0fpBaUTR+kFpRNH6QWlE0fpBaUTR+kFpRNH6QWlE0fpBaUTR+kFpRNH6QWlE0fpBaUTR+kFpRNH6QWlE0fpBaUTR+kFpRNH6QWlE0fpBaUTR+kFpRNH6QWlE0fpBaUTR+kFpRNH6QWlE0fpBaUTR+kFpRNH6QWlE0fpBaUTR+kFpRNH6QWlE0fpBaUTR+kFpRNH6QWlE0fpBaUTR+kFpRNH6QWlE0fpBaUTR+kFpRNH6QWlE0fpBaUT5+EHFx62PhUAAAAAAAAAAAAAAAAAAAAAAAAAAAAAAAAAAAAAAAAAAAAAAAAAAAAAAAAAAAAAAAAA/lnQ/wEgjixBSUCNiAAAAABJRU5ErkJggg==;" vertex="1" parent="1">
          <mxGeometry x="-660" y="90" width="60" height="60" as="geometry" />
        </mxCell>
        <mxCell id="NfaXuaNdWtu9nhoCSl9H-7" value="&lt;div style=&quot;font-size: 17px;&quot;&gt;&lt;font style=&quot;font-size: 17px;&quot;&gt;IslamXplorer&amp;nbsp;&lt;/font&gt;&lt;/div&gt;&lt;div style=&quot;font-size: 17px;&quot;&gt;&lt;font style=&quot;font-size: 17px;&quot;&gt;Interface&lt;/font&gt;&lt;/div&gt;" style="text;html=1;strokeColor=none;fillColor=none;align=center;verticalAlign=middle;whiteSpace=wrap;rounded=0;" vertex="1" parent="1">
          <mxGeometry x="-660" y="150" width="80" height="50" as="geometry" />
        </mxCell>
      </root>
    </mxGraphModel>
  </diagram>
</mxfile>
